<svg width="2112" height="2114" viewBox="0 0 2112 2114" fill="none" xmlns="http://www.w3.org/2000/svg">
<path d="M1313.5 358.03L1306.49 376.179L1316.52 380.053C1320.9 381.745 1324.55 382.47 1327.48 382.23C1330.52 381.94 1332.74 380.1 1334.14 376.708C1335.6 373.156 1335.27 370.237 1333.13 367.948C1331.11 365.611 1327.91 363.596 1323.53 361.905L1313.5 358.03ZM1366.71 395.054C1365.32 399.365 1363.16 402.924 1360.25 405.732C1357.45 408.491 1353.75 410.357 1349.17 411.33C1344.61 412.224 1339.11 412.154 1332.64 411.121C1326.26 410.119 1318.81 407.973 1310.3 404.682L1261.7 385.907L1292.15 307.104L1379.79 340.964L1370.61 364.724L1318.55 344.611L1317.03 348.551L1327.17 352.472C1336.63 355.942 1344.21 359.513 1349.93 363.186C1355.65 366.858 1359.91 370.516 1362.71 374.159C1365.62 377.754 1367.26 381.316 1367.63 384.846C1368.09 388.406 1367.78 391.809 1366.71 395.054Z" fill="white"/>
<path d="M1438.7 412.767L1437.03 411.809L1401.03 447.641L1364.54 426.618L1406.71 353.418L1439.87 372.524L1415.4 415.002L1417.06 415.961L1452.96 380.064L1489.56 401.151L1447.39 474.351L1414.22 455.245L1438.7 412.767Z" fill="white"/>
<path d="M1552.64 449.284C1558.91 454.29 1563.64 459.103 1566.83 463.725C1570.08 468.4 1572.13 472.876 1572.98 477.153C1573.82 481.43 1573.58 485.495 1572.25 489.348C1570.99 493.254 1568.97 496.94 1566.2 500.408C1559.92 508.276 1552.84 512.56 1544.96 513.26C1537.14 513.893 1529.19 510.988 1521.13 504.545C1517.59 501.723 1514.81 498.847 1512.78 495.917C1510.81 492.92 1509.48 490.003 1508.8 487.165C1508.23 484.313 1508.29 481.574 1508.97 478.948C1509.7 476.256 1510.94 473.809 1512.7 471.609L1511.2 470.411L1484.92 503.318L1455.12 479.515L1507.83 413.501L1552.64 449.284ZM1523.94 474.357C1526.47 476.381 1528.65 477.352 1530.46 477.27C1532.39 477.175 1533.81 476.561 1534.71 475.427C1537.38 472.093 1535.54 467.897 1529.21 462.838L1521.9 457.008L1519.11 460.508C1518.62 462.081 1518.46 463.647 1518.63 465.207C1518.78 466.526 1519.19 467.998 1519.86 469.623C1520.64 471.235 1522 472.813 1523.94 474.357Z" fill="white"/>
<path d="M1602.97 560.458L1601.88 559.197C1599.32 556.223 1597.04 554.753 1595.04 554.786C1593.1 554.763 1591.13 555.615 1589.13 557.341L1580.01 565.194C1577.75 567.144 1575.7 568.746 1573.85 570C1572 571.254 1570.39 572.193 1569.01 572.817C1567.49 573.672 1566.09 574.263 1564.79 574.59L1538.56 544.14L1540.02 542.887C1541.12 542.727 1542.49 542.224 1544.12 541.377C1545.56 540.698 1547.31 539.648 1549.35 538.227C1551.45 536.75 1553.96 534.758 1556.87 532.252L1559.2 530.246C1561.59 528.186 1563.94 526.727 1566.24 525.869C1568.61 524.956 1570.98 524.77 1573.36 525.31C1575.86 525.859 1578.43 527.139 1581.06 529.15C1583.82 531.17 1586.81 534.055 1590.04 537.805L1591.49 536.551C1588.99 533.642 1586.97 530.709 1585.43 527.751C1583.96 524.737 1583.07 521.736 1582.74 518.747C1582.48 515.823 1582.87 513.008 1583.92 510.303C1585.03 507.542 1586.91 505.02 1589.56 502.736L1603.82 490.455L1630.05 520.905L1609.59 538.533C1608.68 539.313 1607.89 540.162 1607.22 541.08C1606.6 542.062 1606.19 543.151 1605.98 544.345C1605.83 545.484 1606.01 546.738 1606.52 548.106C1607.02 549.475 1608 551 1609.44 552.681L1610.53 553.941L1638.07 530.214L1663.05 559.21L1635.51 582.937L1636.6 584.197C1638.04 585.878 1639.41 587.069 1640.69 587.769C1641.97 588.469 1643.18 588.832 1644.33 588.857C1645.54 588.826 1646.65 588.545 1647.66 588.015C1648.72 587.55 1649.71 586.927 1650.61 586.147L1671.07 568.519L1697.31 598.969L1683.05 611.251C1680.4 613.534 1677.63 615.022 1674.73 615.714C1671.9 616.351 1669.03 616.289 1666.12 615.528C1663.27 614.831 1660.46 613.533 1657.7 611.634C1655 609.678 1652.4 607.246 1649.89 604.337L1648.44 605.59C1651.67 609.34 1654.05 612.693 1655.59 615.651C1657.24 618.618 1658.13 621.347 1658.24 623.836C1658.48 626.334 1657.97 628.687 1656.72 630.893C1655.53 633.043 1653.74 635.149 1651.35 637.209L1649.02 639.215C1646.11 641.721 1643.77 643.907 1642 645.771C1640.29 647.581 1639 649.148 1638.11 650.474C1637.03 651.967 1636.33 653.246 1636.01 654.311L1634.56 655.564L1608.32 625.114C1608.84 623.882 1609.63 622.579 1610.7 621.207C1611.52 619.937 1612.69 618.481 1614.2 616.839C1615.72 615.197 1617.6 613.401 1619.87 611.451L1628.98 603.598C1630.99 601.871 1632.12 600.05 1632.38 598.133C1632.71 596.161 1631.59 593.688 1629.03 590.714L1627.95 589.453L1599.05 614.35L1574.07 585.355L1602.97 560.458Z" fill="white"/>
<path d="M1657.52 698.297L1635.8 661.024L1718.85 635.754L1749.13 687.737L1685.67 746.63L1664.47 710.242L1679.09 699.213L1674.32 691.028L1657.52 698.297ZM1703.13 678.69L1683.41 687.062L1687.02 693.256L1704.09 680.349L1703.13 678.69Z" fill="white"/>
<path d="M1716.97 825.702L1704.78 789.422L1784.87 762.524L1814.17 849.767L1734.09 876.665L1721.9 840.384L1782.53 819.886L1777.6 805.204L1716.97 825.702Z" fill="white"/>
<path d="M1829.93 927.951C1831.33 935.849 1831.7 942.587 1831.04 948.163C1830.39 953.823 1828.97 958.537 1826.78 962.304C1824.58 966.072 1821.72 968.962 1818.17 970.975C1814.64 973.072 1810.69 974.507 1806.32 975.279C1796.41 977.032 1788.26 975.569 1781.89 970.89C1775.6 966.196 1771.56 958.765 1769.76 948.597C1768.97 944.143 1768.79 940.147 1769.2 936.607C1769.7 933.053 1770.63 929.985 1771.99 927.405C1773.46 924.893 1775.31 922.876 1777.55 921.352C1779.88 919.814 1782.43 918.8 1785.2 918.31L1784.87 916.419L1743.4 923.751L1736.76 886.189L1819.95 871.482L1829.93 927.951ZM1791.82 927.799C1792.39 930.992 1793.38 933.157 1794.79 934.294C1796.3 935.499 1797.77 935.976 1799.2 935.723C1803.4 934.98 1804.8 930.618 1803.39 922.635L1801.76 913.433L1797.35 914.213C1795.94 915.069 1794.79 916.14 1793.89 917.425C1793.13 918.513 1792.46 919.887 1791.89 921.548C1791.41 923.279 1791.39 925.362 1791.82 927.799Z" fill="white"/>
<path d="M1754.45 1039.46C1754.29 1032.37 1755.03 1025.79 1756.68 1019.69C1758.34 1013.67 1760.9 1008.41 1764.39 1003.89C1767.95 999.368 1772.44 995.807 1777.84 993.207C1783.24 990.607 1789.61 989.222 1796.95 989.053C1804.28 988.883 1810.71 989.972 1816.23 992.32C1821.83 994.666 1826.47 998.016 1830.16 1002.37C1833.93 1006.72 1836.78 1011.86 1838.71 1017.79C1840.64 1023.81 1841.69 1030.36 1841.85 1037.44C1842.02 1044.52 1841.27 1051.06 1839.62 1057.08C1837.97 1063.18 1835.36 1068.49 1831.79 1073.01C1828.31 1077.53 1823.83 1081.09 1818.34 1083.69C1812.94 1086.29 1806.57 1087.67 1799.23 1087.84C1791.89 1088.01 1785.47 1086.92 1779.95 1084.57C1774.43 1082.23 1769.79 1078.88 1766.02 1074.53C1762.33 1070.17 1759.52 1064.99 1757.59 1058.97C1755.66 1053.04 1754.62 1046.54 1754.45 1039.46ZM1816 1038.03C1815.93 1034.88 1814.21 1032.57 1810.85 1031.11C1807.58 1029.74 1803.25 1029.11 1797.88 1029.23C1792.5 1029.36 1788.17 1030.18 1784.87 1031.71C1781.58 1033.32 1779.97 1035.71 1780.05 1038.86C1780.12 1042.02 1781.83 1044.29 1785.2 1045.66C1788.56 1047.12 1792.93 1047.79 1798.3 1047.66C1803.68 1047.54 1807.97 1046.67 1811.17 1045.06C1814.47 1043.53 1816.08 1041.19 1816 1038.03Z" fill="white"/>
<path d="M1797.7 1160.17L1797.94 1158.26L1751.01 1138.83L1756.36 1097.06L1840.15 1107.79L1835.29 1145.75L1786.66 1139.53L1786.42 1141.43L1833.37 1160.73L1828.01 1202.63L1744.21 1191.9L1749.07 1153.94L1797.7 1160.17Z" fill="white"/>
<path d="M1776.24 1259.26C1775.97 1261.22 1775.5 1263.43 1774.82 1265.9C1774.14 1268.37 1773.21 1270.81 1772.01 1273.23C1770.88 1275.75 1769.48 1278.1 1767.81 1280.3C1766.15 1282.5 1764.23 1284.32 1762.07 1285.76C1759.9 1287.2 1757.43 1288.16 1754.64 1288.63C1751.83 1289.19 1748.74 1289 1745.37 1288.08C1737.06 1285.8 1731.44 1280.63 1728.52 1272.57C1725.68 1264.53 1726.25 1253.27 1730.23 1238.79C1732.4 1230.89 1735.09 1223.67 1738.3 1217.12C1741.52 1210.56 1745.43 1205 1750.05 1200.43L1775.17 1216.75C1773 1218.54 1771.04 1220.53 1769.29 1222.7C1767.72 1224.57 1766.13 1226.79 1764.54 1229.36C1762.95 1231.93 1761.73 1234.78 1760.87 1237.91C1760.46 1239.39 1760.19 1240.87 1760.05 1242.33C1759.97 1243.9 1760.08 1245.3 1760.36 1246.53C1760.7 1247.86 1761.23 1248.98 1761.96 1249.89C1762.76 1250.82 1763.87 1251.48 1765.27 1251.86C1767.51 1252.39 1769.74 1251.54 1771.94 1249.31C1774.2 1247.19 1775.77 1244.39 1776.64 1240.91L1780.77 1225.85L1788.33 1227.8L1783.91 1243.44C1783.21 1245.99 1783.04 1248.2 1783.41 1250.07C1783.86 1251.97 1784.79 1253.11 1786.19 1253.49C1787.51 1253.85 1788.61 1253.54 1789.5 1252.54C1790.37 1251.63 1791.05 1250.31 1791.52 1248.58C1792.05 1246.96 1792.41 1245.02 1792.58 1242.77C1792.74 1240.6 1792.8 1238.45 1792.76 1236.31C1792.73 1234.18 1792.57 1232.19 1792.28 1230.34C1792.05 1228.6 1791.76 1227.23 1791.41 1226.25L1816.27 1224.19C1817.7 1229.62 1818.13 1235.62 1817.56 1242.19C1817.08 1248.79 1815.89 1255.54 1813.99 1262.45C1810.76 1274.22 1806.7 1282.57 1801.8 1287.51C1796.99 1292.47 1791.81 1294.28 1786.25 1292.93C1781.18 1291.72 1777.77 1288.35 1776.01 1282.82C1774.32 1277.4 1774.92 1269.73 1777.82 1259.82L1776.24 1259.26Z" fill="white"/>
<path d="M1696.68 1393.57C1693.4 1392.14 1690.81 1390.07 1688.92 1387.38C1686.99 1384.76 1685.89 1381.3 1685.64 1377C1685.42 1372.81 1686.1 1367.65 1687.66 1361.53C1689.3 1355.45 1691.95 1348.23 1695.61 1339.86L1717.64 1289.56L1795.02 1323.45L1781.62 1354.05L1760.16 1344.66L1759.39 1346.42C1763.38 1348.16 1766.51 1350.37 1768.79 1353.05C1771.03 1355.8 1772.48 1358.86 1773.15 1362.22C1773.79 1365.67 1773.75 1369.38 1773.03 1373.35C1772.32 1377.32 1771.02 1381.46 1769.14 1385.76C1767.42 1389.66 1765.48 1393.05 1763.29 1395.91C1761.11 1398.78 1758.74 1401 1756.18 1402.58C1753.59 1404.24 1750.85 1405.18 1747.95 1405.41C1745.14 1405.66 1742.25 1405.14 1739.28 1403.84C1736.07 1402.44 1733.53 1400.58 1731.66 1398.27C1729.86 1395.99 1728.66 1393.42 1728.05 1390.54C1727.45 1387.67 1727.42 1384.54 1727.98 1381.15C1728.57 1377.87 1729.64 1374.47 1731.18 1370.95L1729.42 1370.18C1726.89 1375.97 1724.32 1380.66 1721.72 1384.27C1719.08 1387.96 1716.39 1390.7 1713.65 1392.48C1710.91 1394.26 1708.13 1395.19 1705.31 1395.26C1702.45 1395.4 1699.58 1394.84 1696.68 1393.57ZM1753.2 1360.89C1754.05 1358.94 1754.28 1357.03 1753.88 1355.18C1753.56 1353.36 1753.03 1351.69 1752.31 1350.16C1751.41 1348.37 1750.29 1346.67 1748.95 1345.06L1746.37 1343.93L1742.06 1353.78C1740.93 1356.36 1740.86 1358.33 1741.84 1359.69C1742.8 1361.13 1744.01 1362.18 1745.5 1362.83C1747.06 1363.51 1748.55 1363.74 1749.95 1363.52C1751.43 1363.33 1752.51 1362.45 1753.2 1360.89ZM1721.2 1360.57C1723.62 1361.63 1725.7 1361.14 1727.43 1359.11C1729.2 1357.18 1731.03 1354.07 1732.91 1349.77L1737.23 1339.92L1725.5 1334.79L1721.19 1344.64C1719.3 1348.94 1718.22 1352.37 1717.93 1354.95C1717.68 1357.64 1718.77 1359.51 1721.2 1360.57Z" fill="white"/>
<path d="M1645.52 1430.42C1649.33 1424.44 1653.61 1419.38 1658.38 1415.24C1663.1 1411.16 1668.17 1408.22 1673.58 1406.4C1679.06 1404.63 1684.76 1404.17 1690.7 1405.02C1696.63 1405.87 1702.7 1408.27 1708.88 1412.21C1715.07 1416.16 1719.8 1420.64 1723.08 1425.66C1726.43 1430.73 1728.42 1436.1 1729.06 1441.77C1729.77 1447.48 1729.27 1453.34 1727.57 1459.34C1725.83 1465.41 1723.05 1471.43 1719.24 1477.41C1715.44 1483.38 1711.17 1488.4 1706.45 1492.48C1701.68 1496.62 1696.56 1499.58 1691.08 1501.35C1685.67 1503.16 1679.96 1503.62 1673.96 1502.73C1668.02 1501.88 1661.96 1499.49 1655.77 1495.54C1649.58 1491.6 1644.85 1487.11 1641.58 1482.09C1638.3 1477.07 1636.31 1471.7 1635.6 1465.99C1634.96 1460.32 1635.52 1454.45 1637.26 1448.38C1638.96 1442.38 1641.71 1436.39 1645.52 1430.42ZM1697.44 1463.51C1699.14 1460.85 1698.99 1457.97 1697.01 1454.89C1695.06 1451.92 1691.81 1448.99 1687.28 1446.11C1682.75 1443.22 1678.69 1441.49 1675.1 1440.92C1671.47 1440.43 1668.81 1441.51 1667.11 1444.18C1665.41 1446.84 1665.58 1449.68 1667.6 1452.69C1669.58 1455.77 1672.84 1458.76 1677.37 1461.65C1681.91 1464.54 1685.95 1466.21 1689.51 1466.65C1693.1 1467.22 1695.74 1466.17 1697.44 1463.51Z" fill="white"/>
<path d="M1636.02 1493.87L1628.23 1502.7L1661.97 1554.2L1614.94 1607.44L1570.53 1568.21L1564.51 1575.02L1530.84 1545.27L1547.62 1526.28L1562.39 1539.33L1600.44 1496.26L1585.57 1483.12L1602.35 1464.13L1636.02 1493.87ZM1615.09 1554.11L1616.36 1552.67L1601.45 1533.01L1597.04 1538L1615.09 1554.11Z" fill="white"/>
<path d="M1500.22 1594.52C1507.22 1588.66 1513.98 1584.5 1520.5 1582.05C1526.95 1579.66 1533.1 1578.69 1538.93 1579.15C1544.82 1579.67 1550.38 1581.53 1555.61 1584.72C1560.84 1587.91 1565.73 1592.22 1570.27 1597.65C1574.27 1602.43 1577.17 1607.29 1578.97 1612.24C1580.71 1617.24 1581.43 1622.03 1581.15 1626.61C1580.91 1631.25 1579.74 1635.63 1577.62 1639.74C1575.49 1643.85 1572.53 1647.5 1568.74 1650.67C1561.54 1656.7 1554.87 1659.5 1548.73 1659.07C1542.59 1658.65 1536.56 1654.9 1530.65 1647.83L1529.17 1649.06L1545.44 1668.5L1526 1684.77L1505.14 1659.83L1528.21 1640.53C1529.37 1641.78 1530.65 1642.71 1532.05 1643.32C1533.27 1643.86 1534.64 1644.1 1536.16 1644.05C1537.61 1644.06 1539.16 1643.38 1540.8 1642.01C1543.41 1639.82 1544.57 1637.01 1544.27 1633.6C1543.9 1630.23 1542.08 1626.59 1538.79 1622.66C1535.5 1618.73 1531.93 1616.32 1528.07 1615.44C1524.2 1614.67 1520.14 1616.06 1515.89 1619.62C1513.21 1621.87 1510.93 1624.33 1509.05 1627.01C1507.11 1629.75 1505.52 1632.3 1504.28 1634.68C1502.82 1637.45 1501.57 1640.28 1500.53 1643.16L1475.33 1627.2C1477.83 1620.87 1481.19 1615 1485.43 1609.56C1489.66 1604.24 1494.59 1599.22 1500.22 1594.52Z" fill="white"/>
<path d="M1480.98 1648.51C1486.15 1656.75 1487.17 1664.57 1484.05 1671.97C1480.9 1679.48 1473.76 1686.72 1462.62 1693.7L1463.64 1695.33L1495.53 1675.35L1509.06 1696.93L1437.9 1741.51L1421.86 1715.91L1447.46 1699.88C1449.7 1698.47 1451.43 1696.89 1452.64 1695.12C1453.82 1693.47 1454.59 1691.73 1454.95 1689.89C1455.36 1688.13 1455.4 1686.34 1455.07 1684.54C1454.67 1682.77 1453.97 1681.09 1452.97 1679.5C1448.8 1672.85 1442.89 1671.93 1435.22 1676.73C1432.55 1678.4 1430.17 1680.4 1428.09 1682.71C1426.02 1685.01 1424.27 1687.21 1422.86 1689.31C1421.18 1691.77 1419.74 1694.28 1418.53 1696.85L1395.63 1677.67C1398.97 1671.75 1403.4 1666.2 1408.92 1661.03C1414.42 1655.98 1420.78 1651.19 1428.01 1646.66C1440.16 1639.04 1450.75 1635.38 1459.79 1635.66C1468.75 1635.98 1475.82 1640.27 1480.98 1648.51Z" fill="white"/>
<path d="M1298.66 1737.47C1297.22 1734.19 1296.71 1730.92 1297.15 1727.65C1297.5 1724.42 1299.04 1721.14 1301.77 1717.8C1304.45 1714.57 1308.44 1711.24 1313.73 1707.8C1319.06 1704.43 1325.9 1700.92 1334.26 1697.25L1384.55 1675.19L1418.49 1752.55L1387.9 1765.97L1378.49 1744.52L1376.73 1745.29C1378.48 1749.28 1379.28 1753.02 1379.15 1756.53C1378.93 1760.07 1377.93 1763.31 1376.14 1766.24C1374.27 1769.2 1371.73 1771.9 1368.51 1774.34C1365.29 1776.77 1361.53 1778.94 1357.24 1780.82C1353.33 1782.54 1349.6 1783.71 1346.06 1784.33C1342.51 1784.95 1339.26 1784.98 1336.31 1784.41C1333.28 1783.88 1330.62 1782.71 1328.34 1780.92C1326.1 1779.2 1324.33 1776.86 1323.02 1773.89C1321.62 1770.68 1321.01 1767.6 1321.2 1764.63C1321.42 1761.73 1322.28 1759.02 1323.78 1756.5C1325.28 1753.98 1327.39 1751.66 1330.09 1749.54C1332.75 1747.53 1335.84 1745.76 1339.36 1744.22L1338.59 1742.46C1332.8 1745 1327.73 1746.71 1323.37 1747.6C1318.93 1748.52 1315.1 1748.71 1311.88 1748.17C1308.66 1747.62 1305.98 1746.42 1303.86 1744.55C1301.66 1742.72 1299.93 1740.36 1298.66 1737.47ZM1362.36 1751.73C1364.32 1750.88 1365.78 1749.63 1366.74 1748C1367.73 1746.44 1368.48 1744.86 1368.98 1743.24C1369.54 1741.32 1369.87 1739.31 1369.97 1737.21L1368.84 1734.63L1358.99 1738.95C1356.42 1740.09 1355.03 1741.49 1354.83 1743.16C1354.55 1744.86 1354.74 1746.46 1355.39 1747.94C1356.08 1749.51 1357.01 1750.68 1358.19 1751.47C1359.41 1752.33 1360.8 1752.42 1362.36 1751.73ZM1339.05 1729.81C1340.11 1732.24 1341.97 1733.29 1344.62 1732.96C1347.23 1732.75 1350.69 1731.7 1354.98 1729.81L1364.83 1725.49L1359.69 1713.77L1349.84 1718.09C1345.54 1719.98 1342.41 1721.77 1340.46 1723.47C1338.46 1725.28 1337.99 1727.39 1339.05 1729.81Z" fill="white"/>
<path d="M1306.9 1799.03L1236.97 1818.92L1230 1794.42L1261.39 1785.49L1257.4 1771.45L1227.85 1779.86L1225.09 1770.13L1254.63 1761.73L1251.97 1753.3L1220.58 1762.23L1213.61 1737.73L1283.54 1717.84L1306.9 1799.03Z" fill="white"/>
<path d="M1167.84 1745.72L1205.7 1740.11L1218.08 1823.68L1180.23 1829.29L1174.78 1792.57L1159.46 1794.84L1164.91 1831.56L1127.05 1837.17L1114.66 1753.61L1152.52 1748L1157.98 1784.84L1173.3 1782.57L1167.84 1745.72Z" fill="white"/>
<path d="M1066.64 1754.46L1104.91 1754.4L1105.05 1838.87L1066.78 1838.94L1066.71 1801.82L1051.23 1801.84L1051.29 1838.96L1013.02 1839.03L1012.88 1754.55L1051.15 1754.48L1051.21 1791.73L1066.7 1791.71L1066.64 1754.46Z" fill="white"/>
<path d="M937.691 1780.09C937.537 1781.88 938.318 1783.55 940.034 1785.07C941.75 1786.6 944.875 1787.78 949.408 1788.61L957.97 1790.17L960.914 1774.05L951.722 1772.37C947.692 1771.64 944.456 1771.78 942.013 1772.81C939.57 1773.84 938.129 1776.27 937.691 1780.09ZM898.969 1769.12C899.873 1764.16 901.391 1759.89 903.524 1756.29C905.557 1752.75 908.455 1749.94 912.22 1747.86C915.969 1745.85 920.66 1744.63 926.293 1744.18C931.911 1743.82 938.665 1744.36 946.556 1745.8L1002.97 1756.1L987.791 1839.2L950.268 1832.35L957.074 1795.08L955.185 1794.74C954.756 1797.09 953.789 1799.3 952.283 1801.36C950.694 1803.41 948.647 1805.12 946.143 1806.49C943.555 1807.84 940.489 1808.71 936.948 1809.1C933.391 1809.58 929.388 1809.41 924.938 1808.6C919.902 1807.68 915.564 1806.02 911.925 1803.62C908.202 1801.21 905.224 1798.28 902.99 1794.83C900.757 1791.39 899.31 1787.44 898.649 1782.98C897.973 1778.61 898.08 1773.99 898.969 1769.12ZM884.035 1820.26L846.385 1813.38L861.561 1730.28L899.211 1737.15L884.035 1820.26Z" fill="white"/>
<path d="M814.832 1711.06L855.159 1726.37L822.574 1759.18L825.171 1805.35L785.682 1790.36L789.602 1765.97L787.807 1765.29L774.553 1786.13L734.226 1770.82L766.93 1738.06L764.213 1691.84L803.703 1706.84L799.782 1731.22L801.577 1731.91L814.832 1711.06Z" fill="white"/>
<path d="M690.238 1650.31L722.564 1670.8L677.338 1742.15L599.605 1692.89L644.83 1621.53L677.156 1642.02L643.003 1696.14L656.084 1704.44L690.238 1650.31Z" fill="white"/>
<path d="M538.091 1642.12C532.028 1636.86 527.496 1631.87 524.495 1627.12C521.429 1622.32 519.561 1617.76 518.889 1613.46C518.218 1609.15 518.624 1605.1 520.107 1601.3C521.525 1597.45 523.687 1593.84 526.592 1590.49C533.186 1582.88 540.432 1578.88 548.329 1578.5C556.17 1578.18 563.993 1581.4 571.797 1588.16C575.215 1591.13 577.878 1594.11 579.787 1597.12C581.641 1600.19 582.851 1603.16 583.419 1606.02C583.867 1608.9 583.699 1611.63 582.917 1614.23C582.079 1616.89 580.738 1619.28 578.894 1621.41L580.345 1622.67L607.922 1590.84L636.75 1615.82L581.43 1679.67L538.091 1642.12ZM567.777 1618.21C565.326 1616.09 563.193 1615.03 561.379 1615.04C559.445 1615.06 558.002 1615.62 557.052 1616.71C554.258 1619.94 555.925 1624.2 562.052 1629.51L569.114 1635.63L572.047 1632.25C572.602 1630.69 572.823 1629.14 572.711 1627.57C572.616 1626.25 572.268 1624.76 571.666 1623.11C570.943 1621.47 569.647 1619.84 567.777 1618.21Z" fill="white"/>
<path d="M530.339 1514.54L558.338 1547.35L481.111 1587L442.063 1541.23L494.033 1471.99L521.366 1504.02L508.952 1517.48L515.1 1524.68L530.339 1514.54ZM488.946 1541.95L506.855 1530.2L502.202 1524.75L487.7 1540.49L488.946 1541.95Z" fill="white"/>
<path d="M423.805 1401.36C427.057 1399.31 429.698 1397.5 431.73 1395.92C433.689 1394.39 435.206 1393.04 436.28 1391.86C437.57 1390.54 438.454 1389.38 438.931 1388.38L440.557 1387.36L461.935 1421.39C461.242 1422.53 460.263 1423.7 458.999 1424.9C457.998 1426.03 456.626 1427.3 454.883 1428.69C453.14 1430.09 451.004 1431.58 448.475 1433.17L438.287 1439.57C436.047 1440.98 434.653 1442.61 434.105 1444.47C433.485 1446.37 434.219 1448.98 436.307 1452.3L437.192 1453.71L469.493 1433.42L489.85 1465.83L418.312 1510.77L397.955 1478.36L428.738 1459.02L427.853 1457.61C426.673 1455.73 425.503 1454.35 424.343 1453.47C423.183 1452.59 422.038 1452.05 420.906 1451.85C419.703 1451.7 418.564 1451.81 417.488 1452.18C416.367 1452.48 415.301 1452.95 414.289 1453.59L391.419 1467.95L370.04 1433.92L385.974 1423.91C388.937 1422.05 391.901 1420.99 394.867 1420.74C397.761 1420.54 400.589 1421.03 403.351 1422.22C406.067 1423.33 408.649 1425.03 411.096 1427.33C413.471 1429.66 415.68 1432.46 417.722 1435.71L419.348 1434.69C416.716 1430.5 414.862 1426.82 413.788 1423.67C412.596 1420.49 412.128 1417.66 412.385 1415.18C412.524 1412.67 413.378 1410.42 414.947 1408.43C416.445 1406.48 418.53 1404.67 421.204 1402.99L423.805 1401.36Z" fill="white"/>
<path d="M412.274 1394.42C403.401 1398.41 395.516 1398.35 388.619 1394.25C381.61 1390.1 375.412 1382.03 370.025 1370.05L368.273 1370.83L383.7 1405.16L360.467 1415.6L326.045 1339.01L353.598 1326.63L365.982 1354.18C367.066 1356.59 368.4 1358.52 369.983 1359.96C371.453 1361.36 373.073 1362.36 374.843 1362.97C376.535 1363.61 378.299 1363.9 380.136 1363.82C381.937 1363.66 383.694 1363.2 385.407 1362.43C392.567 1359.21 394.294 1353.48 390.586 1345.23C389.291 1342.35 387.643 1339.72 385.64 1337.35C383.637 1334.97 381.697 1332.94 379.818 1331.26C377.609 1329.26 375.314 1327.49 372.934 1325.94L395.074 1305.88C400.481 1310 405.367 1315.15 409.734 1321.33C413.988 1327.46 417.864 1334.42 421.362 1342.2C427.239 1355.28 429.42 1366.27 427.907 1375.19C426.358 1384.02 421.147 1390.43 412.274 1394.42Z" fill="white"/>
<path d="M336.298 1253.73L336.83 1255.58L387.623 1254.8L399.277 1295.27L318.096 1318.65L307.505 1281.87L354.614 1268.31L354.083 1266.46L303.325 1267.36L291.635 1226.77L372.816 1203.39L383.408 1240.17L336.298 1253.73Z" fill="white"/>
<path d="M337.625 1108.2C341.431 1107.69 344.585 1107.13 347.088 1106.54C349.506 1105.95 351.447 1105.35 352.912 1104.72C354.631 1104.06 355.916 1103.37 356.766 1102.65L358.669 1102.39L364.045 1142.22C362.941 1142.97 361.567 1143.63 359.921 1144.2C358.54 1144.82 356.768 1145.4 354.603 1145.95C352.439 1146.5 349.877 1146.98 346.917 1147.38L334.993 1148.99C332.372 1149.34 330.428 1150.25 329.161 1151.71C327.81 1153.18 327.397 1155.87 327.922 1159.76L328.145 1161.41L365.946 1156.3L371.066 1194.23L287.345 1205.53L282.225 1167.6L318.251 1162.74L318.028 1161.09C317.731 1158.89 317.238 1157.15 316.548 1155.87C315.858 1154.58 315.039 1153.62 314.09 1152.97C313.057 1152.33 311.974 1151.96 310.84 1151.86C309.695 1151.67 308.531 1151.65 307.347 1151.81L280.582 1155.43L275.205 1115.6L293.852 1113.08C297.319 1112.61 300.455 1112.88 303.259 1113.87C305.979 1114.89 308.35 1116.5 310.372 1118.73C312.383 1120.87 314.028 1123.49 315.308 1126.59C316.503 1129.7 317.357 1133.15 317.871 1136.96L319.773 1136.7C319.111 1131.8 318.944 1127.69 319.271 1124.37C319.502 1120.98 320.248 1118.21 321.508 1116.06C322.671 1113.84 324.38 1112.14 326.634 1110.98C328.803 1109.82 331.452 1109.04 334.581 1108.61L337.625 1108.2Z" fill="white"/>
<path d="M273.391 1052.7L277.09 980.088L302.529 981.384L300.869 1013.98L315.442 1014.72L317.005 984.044L327.104 984.559L325.541 1015.24L334.374 1015.43L336.035 982.835L361.474 984.131L357.775 1056.74L273.391 1052.7Z" fill="white"/>
<path d="M356.591 883.601C360.369 884.286 363.54 884.732 366.105 884.937C368.586 885.127 370.62 885.149 372.207 885.003C374.046 884.903 375.481 884.643 376.511 884.223L378.401 884.566L371.226 924.112C369.944 924.487 368.433 924.69 366.692 924.721C365.189 924.882 363.323 924.89 361.094 924.746C358.865 924.602 356.282 924.263 353.343 923.73L341.504 921.582C338.901 921.11 336.772 921.374 335.116 922.374C333.376 923.36 332.156 925.783 331.455 929.646L331.158 931.283L368.69 938.092L361.858 975.749L278.735 960.669L285.567 923.011L321.335 929.501L321.632 927.863C322.028 925.68 322.096 923.871 321.836 922.437C321.576 921.002 321.094 919.83 320.392 918.922C319.605 917.999 318.689 917.313 317.643 916.863C316.613 916.329 315.51 915.955 314.334 915.742L287.76 910.921L294.935 871.374L313.449 874.733C316.891 875.358 319.792 876.578 322.151 878.393C324.426 880.194 326.182 882.464 327.42 885.203C328.673 887.859 329.429 890.858 329.69 894.201C329.867 897.529 329.613 901.082 328.927 904.86L330.816 905.203C331.7 900.333 332.809 896.371 334.143 893.318C335.409 890.165 336.973 887.76 338.835 886.104C340.628 884.347 342.776 883.263 345.279 882.85C347.698 882.421 350.461 882.489 353.568 883.053L356.591 883.601Z" fill="white"/>
<path d="M393.104 839.311L379.33 880.189L305.648 834.292L324.858 777.281L410.964 786.303L397.518 826.211L379.598 822.469L376.574 831.446L393.104 839.311ZM348.324 817.875L367.602 827.207L369.89 820.414L348.937 816.055L348.324 817.875Z" fill="white"/>
<path d="M387.863 768.599C379.174 764.226 374.248 758.069 373.086 750.128C371.886 742.072 374.24 732.176 380.147 720.437L378.432 719.574L361.514 753.189L338.762 741.737L376.511 666.733L403.494 680.314L389.913 707.297C388.724 709.66 388.07 711.91 387.949 714.046C387.791 716.069 388.035 717.958 388.679 719.715C389.247 721.434 390.139 722.982 391.357 724.359C392.613 725.66 394.079 726.732 395.756 727.576C402.769 731.106 408.308 728.831 412.375 720.751C413.794 717.931 414.794 714.995 415.375 711.943C415.955 708.892 416.306 706.107 416.427 703.588C416.587 700.612 416.519 697.712 416.221 694.887L445.747 699.43C445.958 706.223 445.042 713.262 443.001 720.545C440.921 727.714 437.963 735.11 434.127 742.732C427.682 755.538 420.523 764.163 412.65 768.607C404.815 772.975 396.553 772.973 387.863 768.599Z" fill="white"/>
<path d="M386.449 650.303L426.935 589.914L448.093 604.099L429.917 631.21L442.037 639.336L459.144 613.819L467.543 619.45L450.436 644.967L457.914 649.672L476.09 622.561L497.247 636.746L456.761 697.134L386.449 650.303Z" fill="white"/>
<path d="M476.386 530.71C481.7 524.702 486.745 520.221 491.521 517.268C496.354 514.251 500.927 512.429 505.241 511.801C509.555 511.174 513.603 511.621 517.384 513.142C521.221 514.599 524.802 516.798 528.126 519.737C535.669 526.408 539.592 533.694 539.895 541.594C540.135 549.439 536.834 557.228 529.994 564.963C526.998 568.35 523.986 570.984 520.957 572.862C517.865 574.684 514.885 575.864 512.016 576.403C509.14 576.821 506.408 576.626 503.819 575.818C501.166 574.953 498.785 573.588 496.676 571.722L495.404 573.16L526.949 601.059L501.68 629.632L438.397 573.666L476.386 530.71ZM499.986 560.638C502.134 558.209 503.213 556.087 503.222 554.273C503.225 552.338 502.682 550.89 501.596 549.929C498.4 547.103 494.116 548.726 488.746 554.798L482.556 561.798L485.912 564.766C487.458 565.336 489.014 565.573 490.58 565.477C491.905 565.395 493.396 565.062 495.053 564.477C496.702 563.771 498.346 562.491 499.986 560.638Z" fill="white"/>
<path d="M585.488 475.873L584.014 477.104L605.207 523.271L572.877 550.255L518.744 485.397L548.127 460.873L579.54 498.511L581.014 497.28L559.722 451.195L592.151 424.129L646.284 488.987L616.901 513.51L585.488 475.873Z" fill="white"/>
<path d="M686.476 463.775L653.806 483.71L609.803 411.594L642.473 391.66L661.808 423.347L675.029 415.28L655.695 383.593L688.365 363.658L732.368 435.773L699.697 455.708L680.296 423.912L667.075 431.979L686.476 463.775Z" fill="white"/>
<path d="M759.062 374.954L766.567 392.905L776.487 388.758C780.817 386.947 783.956 384.942 785.903 382.74C787.895 380.427 788.223 377.562 786.887 374.143C785.484 370.568 783.221 368.693 780.096 368.52C777.017 368.234 773.313 368.997 768.982 370.807L759.062 374.954ZM823.09 364.835C825.07 368.909 825.981 372.968 825.822 377.011C825.708 380.943 824.335 384.847 821.701 388.723C819.033 392.521 815.011 396.283 809.633 400.012C804.333 403.707 797.472 407.316 789.047 410.837L740.983 430.932L708.397 352.989L795.079 316.75L804.904 340.251L753.415 361.777L755.044 365.674L765.082 361.478C774.306 357.436 782.252 354.762 788.92 353.454C795.587 352.147 801.193 351.838 805.736 352.528C810.325 353.107 813.976 354.54 816.69 356.828C819.483 359.083 821.616 361.752 823.09 364.835Z" fill="white"/>
<path d="M875.863 293.944L916.865 283.793L918.685 370.505L848.36 387.916L842.269 363.314L877.929 354.486L877.467 352.622C870.758 354.283 865.157 355.098 860.666 355.068C856.155 354.954 852.421 354.252 849.464 352.962C846.507 351.672 844.1 349.938 842.243 347.761C840.468 345.563 838.9 343.138 837.54 340.486L820.696 307.602L862.444 297.266L880.126 343.657L881.99 343.195L875.863 293.944Z" fill="white"/>
<path d="M993.702 275.335C1001.69 274.596 1008.43 274.786 1013.94 275.906C1019.52 277.017 1024.1 278.822 1027.68 281.319C1031.25 283.817 1033.89 286.914 1035.61 290.612C1037.41 294.302 1038.51 298.357 1038.92 302.775C1039.85 312.802 1037.71 320.797 1032.52 326.762C1027.33 332.642 1019.59 336.057 1009.3 337.008C1004.8 337.424 1000.8 337.28 997.31 336.575C993.809 335.785 990.829 334.603 988.369 333.031C985.987 331.366 984.13 329.353 982.797 326.991C981.457 324.544 980.657 321.918 980.398 319.114L978.486 319.291L982.364 361.224L944.382 364.737L936.602 280.616L993.702 275.335ZM990.401 313.304C993.63 313.006 995.869 312.199 997.119 310.883C998.445 309.475 999.042 308.049 998.908 306.604C998.515 302.356 994.283 300.605 986.211 301.351L976.906 302.212L977.319 306.673C978.055 308.147 979.027 309.386 980.233 310.388C981.255 311.236 982.569 312.015 984.177 312.723C985.862 313.338 987.937 313.532 990.401 313.304Z" fill="white"/>
<path d="M1123.91 300.37L1093.34 299.107L1090.91 357.937L1050.75 356.278L1054.24 271.998L1124.96 274.919L1123.91 300.37Z" fill="white"/>
<path d="M1170.6 366.483L1128.1 359.071L1162.29 279.278L1221.56 289.615L1225.7 376.094L1184.22 368.858L1185.2 350.578L1175.86 348.951L1170.6 366.483ZM1184.99 318.969L1178.69 339.439L1185.75 340.671L1186.88 319.299L1184.99 318.969Z" fill="white"/>
</svg>
