<?xml version="1.0" encoding="utf-8"?>
<!-- Generator: Adobe Illustrator 24.1.2, SVG Export Plug-In . SVG Version: 6.00 Build 0)  -->
<svg version="1.1" id="Слой_1" xmlns="http://www.w3.org/2000/svg" xmlns:xlink="http://www.w3.org/1999/xlink" x="0px" y="0px"
	 viewBox="0 0 32 32" style="enable-background:new 0 0 32 32;" xml:space="preserve">
<style type="text/css">
	.st0{fill:#FFFFFF;}
</style>
<path class="st0" d="M9,25.5h1v1H9 M10,25.5h1v1h-1 M11,25.5h1v1h-1 M13,25.5h1v1h-1 M12,25.5h1v1h-1 M15,25.5h1v1h-1 M14,25.5h1v1
	h-1 M16,25.5h1v1h-1 M17,25.5h1v1h-1 M18,25.5h1v1h-1 M19,25.5h1v1h-1 M20,25.5h1v1h-1 M21,25.5h1v1h-1 M22,25.5h1v1h-1 M8,24.5h1v1
	H8 M9,24.5h1v1H9 M10,24.5h1v1h-1 M11,24.5h1v1h-1 M12,24.5h1v1h-1 M13,24.5h1v1h-1 M14,24.5h1v1h-1 M15,24.5h1v1h-1 M16,24.5h1v1
	h-1 M17,24.5h1v1h-1 M18,24.5h1v1h-1 M19,24.5h1v1h-1 M20,24.5h1v1h-1 M21,24.5h1v1h-1 M22,24.5h1v1h-1 M23,24.5h1v1h-1 M23,23.5h1
	v1h-1 M22,23.5h1v1h-1 M22,22.5h1v1h-1 M23,22.5h1v1h-1 M8,23.5h1v1H8 M9,23.5h1v1H9 M9,22.5h1v1H9 M8,22.5h1v1H8 M10,21.5h1v1h-1
	 M10,20.5h1v1h-1 M10,19.5h1v1h-1 M11,20.5h1v1h-1 M21,21.5h1v1h-1 M21,20.5h1v1h-1 M20,20.5h1v1h-1 M8,21.5h1v1H8 M9,21.5h1v1H9
	 M9,20.5h1v1H9 M22,20.5h1v1h-1 M22,21.5h1v1h-1 M23,21.5h1v1h-1 M11,19.5h1v1h-1 M20,19.5h1v1h-1 M21,19.5h1v1h-1 M20,18.5h1v1h-1
	 M11,18.5h1v1h-1 M12,17.5h1v1h-1 M13,17.5h1v1h-1 M13,16.5h1v1h-1 M18,17.5h1v1h-1 M18,16.5h1v1h-1 M19,17.5h1v1h-1 M14,16.5h1v1
	h-1 M16,16.5h1v1h-1 M17,16.5h1v1h-1 M17,17.5h1v1h-1 M16,17.5h1v1h-1 M15,17.5h1v1h-1 M14,17.5h1v1h-1 M15,16.5h1v1h-1 M13,18.5h1
	v1h-1 M12,18.5h1v1h-1 M12,19.5h1v1h-1 M18,18.5h1v1h-1 M19,18.5h1v1h-1 M19,19.5h1v1h-1 M14,13.5h1v1h-1 M15,13.5h1v1h-1 M16,13.5
	h1v1h-1 M17,13.5h1v1h-1 M18,12.5h1v1h-1 M17,12.5h1v1h-1 M16,12.5h1v1h-1 M15,12.5h1v1h-1 M14,12.5h1v1h-1 M13,12.5h1v1h-1
	 M12,11.5h1v1h-1 M11,10.5h1v1h-1 M12,10.5h1v1h-1 M19,11.5h1v1h-1 M19,10.5h1v1h-1 M20,10.5h1v1h-1 M20,8.5h1v1h-1 M19,9.5h1v1h-1
	 M20,9.5h1v1h-1 M11,8.5h1v1h-1 M12,8.5h1v1h-1 M12,9.5h1v1h-1 M11,9.5h1v1h-1 M13,11.5h1v1h-1 M14,11.5h1v1h-1 M18,11.5h1v1h-1
	 M17,11.5h1v1h-1 M13,10.5h1v1h-1 M18,10.5h1v1h-1 M19,7.5h1v1h-1 M19,8.5h1v1h-1 M20,7.5h1v1h-1 M19,6.5h1v1h-1 M12,7.5h1v1h-1
	 M11,7.5h1v1h-1 M12,6.5h1v1h-1 M13,5.5h1v1h-1 M14,5.5h1v1h-1 M14,4.5h1v1h-1 M17,5.5h1v1h-1 M17,4.5h1v1h-1 M18,5.5h1v1h-1
	 M16,4.5h1v1h-1 M15,4.5h1v1h-1 M15,5.5h1v1h-1 M16,5.5h1v1h-1 M14,6.5h1v1h-1 M13,6.5h1v1h-1 M13,7.5h1v1h-1 M17,6.5h1v1h-1
	 M18,6.5h1v1h-1 M18,7.5h1v1h-1"/>
</svg>
