<?xml version="1.0" encoding="utf-8"?>
<!-- Generator: Adobe Illustrator 24.1.2, SVG Export Plug-In . SVG Version: 6.00 Build 0)  -->
<svg version="1.1" id="Слой_1" xmlns="http://www.w3.org/2000/svg" xmlns:xlink="http://www.w3.org/1999/xlink" x="0px" y="0px"
	 viewBox="0 0 800 800" style="enable-background:new 0 0 800 800;" xml:space="preserve">
<style type="text/css">
	.st0{fill:#FFFFFF;}
	.st1{fill:#050505;}
	.st2{fill:url(#SVGID_1_);}
</style>
<image style="overflow:visible;" width="2779" height="2779" xlink:href="3E0D9BB9.jpg"  transform="matrix(0.24 0 0 0.24 66.48 66.56)">
</image>
<g>
	<rect x="700.1" y="700.2" class="st0" width="33.3" height="33.3"/>
	<rect x="666.8" y="700.2" class="st0" width="33.3" height="33.3"/>
	<rect x="633.4" y="700.2" class="st0" width="33.3" height="33.3"/>
	<rect x="600.1" y="700.2" class="st0" width="33.3" height="33.3"/>
	<rect x="566.7" y="700.2" class="st0" width="33.3" height="33.3"/>
	<rect x="533.4" y="700.2" class="st0" width="33.3" height="33.3"/>
	<rect x="500" y="700.2" class="st0" width="33.3" height="33.3"/>
	<rect x="466.7" y="700.2" class="st0" width="33.3" height="33.3"/>
	<rect x="433.3" y="700.2" width="33.3" height="33.3"/>
	<rect x="400" y="700.2" width="33.3" height="33.3"/>
	<rect x="366.6" y="700.2" width="33.3" height="33.3"/>
	<rect x="333.3" y="700.2" width="33.3" height="33.3"/>
	<rect x="299.9" y="700.2" class="st0" width="33.3" height="33.3"/>
	<rect x="266.6" y="700.2" class="st0" width="33.3" height="33.3"/>
	<rect x="233.2" y="700.2" class="st0" width="33.3" height="33.3"/>
	<rect x="199.9" y="700.2" class="st0" width="33.3" height="33.3"/>
	<rect x="166.5" y="700.2" class="st0" width="33.3" height="33.3"/>
	<rect x="133.2" y="700.2" class="st0" width="33.3" height="33.3"/>
	<rect x="99.8" y="700.2" class="st0" width="33.3" height="33.3"/>
	<rect x="66.5" y="700.2" class="st0" width="33.3" height="33.3"/>
	<rect x="700.1" y="666.9" class="st0" width="33.3" height="33.3"/>
	<rect x="666.8" y="666.9" class="st0" width="33.3" height="33.3"/>
	<rect x="633.4" y="666.9" class="st0" width="33.3" height="33.3"/>
	<rect x="600.1" y="666.9" class="st0" width="33.3" height="33.3"/>
	<rect x="566.7" y="666.9" class="st0" width="33.3" height="33.3"/>
	<rect x="533.4" y="666.9" class="st0" width="33.3" height="33.3"/>
	<rect x="500" y="666.9" class="st0" width="33.3" height="33.3"/>
	<rect x="466.7" y="666.9" width="33.3" height="33.3"/>
	<rect x="433.3" y="666.9" width="33.3" height="33.3"/>
	<rect x="400" y="666.9" width="33.3" height="33.3"/>
	<rect x="366.6" y="666.9" width="33.3" height="33.3"/>
	<rect x="333.3" y="666.9" width="33.3" height="33.3"/>
	<rect x="299.9" y="666.9" width="33.3" height="33.3"/>
	<rect x="266.6" y="666.9" class="st0" width="33.3" height="33.3"/>
	<rect x="233.2" y="666.9" class="st0" width="33.3" height="33.3"/>
	<rect x="199.9" y="666.9" class="st0" width="33.3" height="33.3"/>
	<rect x="166.5" y="666.9" class="st0" width="33.3" height="33.3"/>
	<rect x="133.2" y="666.9" class="st0" width="33.3" height="33.3"/>
	<rect x="99.8" y="666.9" class="st0" width="33.3" height="33.3"/>
	<rect x="66.5" y="666.9" class="st0" width="33.3" height="33.3"/>
	<rect x="700.1" y="633.5" class="st0" width="33.3" height="33.3"/>
	<rect x="666.8" y="633.5" class="st0" width="33.3" height="33.3"/>
	<rect x="633.4" y="633.5" class="st0" width="33.3" height="33.3"/>
	<rect x="600.1" y="633.5" width="33.3" height="33.3"/>
	<rect x="566.7" y="633.5" width="33.3" height="33.3"/>
	<rect x="533.4" y="633.5" width="33.3" height="33.3"/>
	<rect x="500" y="633.5" width="33.3" height="33.3"/>
	<rect x="466.7" y="633.5" width="33.3" height="33.3"/>
	<rect x="433.3" y="633.5" width="33.3" height="33.3"/>
	<rect x="400" y="633.5" class="st0" width="33.3" height="33.3"/>
	<rect x="366.6" y="633.5" class="st0" width="33.3" height="33.3"/>
	<rect x="333.3" y="633.5" width="33.3" height="33.3"/>
	<rect x="299.9" y="633.5" width="33.3" height="33.3"/>
	<rect x="266.6" y="633.5" width="33.3" height="33.3"/>
	<rect x="233.2" y="633.5" width="33.3" height="33.3"/>
	<rect x="199.9" y="633.5" width="33.3" height="33.3"/>
	<rect x="166.5" y="633.5" width="33.3" height="33.3"/>
	<rect x="133.2" y="633.5" class="st0" width="33.3" height="33.3"/>
	<rect x="99.8" y="633.5" class="st0" width="33.3" height="33.3"/>
	<rect x="66.5" y="633.5" class="st0" width="33.3" height="33.3"/>
	<rect x="700.1" y="600.2" class="st0" width="33.3" height="33.3"/>
	<rect x="666.8" y="600.2" class="st0" width="33.3" height="33.3"/>
	<rect x="633.4" y="600.2" width="33.3" height="33.3"/>
	<rect x="600.1" y="600.2" width="33.3" height="33.3"/>
	<rect x="566.7" y="600.2" width="33.3" height="33.3"/>
	<rect x="533.4" y="600.2" width="33.3" height="33.3"/>
	<rect x="500" y="600.2" width="33.3" height="33.3"/>
	<rect x="466.7" y="600.2" width="33.3" height="33.3"/>
	<rect x="433.3" y="600.2" class="st0" width="33.3" height="33.3"/>
	<rect x="400" y="600.2" class="st0" width="33.3" height="33.3"/>
	<rect x="366.6" y="600.2" class="st0" width="33.3" height="33.3"/>
	<rect x="333.3" y="600.2" class="st0" width="33.3" height="33.3"/>
	<rect x="299.9" y="600.2" width="33.3" height="33.3"/>
	<rect x="266.6" y="600.2" width="33.3" height="33.3"/>
	<rect x="233.2" y="600.2" width="33.3" height="33.3"/>
	<rect x="199.9" y="600.2" width="33.3" height="33.3"/>
	<rect x="166.5" y="600.2" width="33.3" height="33.3"/>
	<rect x="133.2" y="600.2" width="33.3" height="33.3"/>
	<rect x="99.8" y="600.2" class="st0" width="33.3" height="33.3"/>
	<rect x="66.5" y="600.2" class="st0" width="33.3" height="33.3"/>
	<rect x="700.1" y="566.8" class="st0" width="33.3" height="33.3"/>
	<rect x="666.8" y="566.8" class="st0" width="33.3" height="33.3"/>
	<rect x="633.4" y="566.8" width="33.3" height="33.3"/>
	<rect x="600.1" y="566.8" width="33.3" height="33.3"/>
	<rect x="566.7" y="566.8" class="st0" width="33.3" height="33.3"/>
	<rect x="533.4" y="566.8" class="st0" width="33.3" height="33.3"/>
	<rect x="500" y="566.8" class="st0" width="33.3" height="33.3"/>
	<rect x="466.7" y="566.8" class="st0" width="33.3" height="33.3"/>
	<rect x="433.3" y="566.8" class="st0" width="33.3" height="33.3"/>
	<rect x="400" y="566.8" class="st0" width="33.3" height="33.3"/>
	<rect x="366.6" y="566.8" class="st0" width="33.3" height="33.3"/>
	<rect x="333.3" y="566.8" class="st0" width="33.3" height="33.3"/>
	<rect x="299.9" y="566.8" class="st0" width="33.3" height="33.3"/>
	<rect x="266.6" y="566.8" class="st0" width="33.3" height="33.3"/>
	<rect x="233.2" y="566.8" class="st0" width="33.3" height="33.3"/>
	<rect x="199.9" y="566.8" class="st0" width="33.3" height="33.3"/>
	<rect x="166.5" y="566.8" width="33.3" height="33.3"/>
	<rect x="133.2" y="566.8" width="33.3" height="33.3"/>
	<rect x="99.8" y="566.8" class="st0" width="33.3" height="33.3"/>
	<rect x="66.5" y="566.8" class="st0" width="33.3" height="33.3"/>
	<rect x="700.1" y="533.5" class="st0" width="33.3" height="33.3"/>
	<rect x="666.8" y="533.5" class="st0" width="33.3" height="33.3"/>
	<rect x="633.4" y="533.5" width="33.3" height="33.3"/>
	<rect x="600.1" y="533.5" width="33.3" height="33.3"/>
	<rect x="566.7" y="533.5" class="st0" width="33.3" height="33.3"/>
	<rect x="533.4" y="533.5" class="st0" width="33.3" height="33.3"/>
	<rect x="500" y="533.5" class="st0" width="33.3" height="33.3"/>
	<rect x="466.7" y="533.5" class="st0" width="33.3" height="33.3"/>
	<rect x="433.3" y="533.5" class="st0" width="33.3" height="33.3"/>
	<rect x="400" y="533.5" class="st0" width="33.3" height="33.3"/>
	<rect x="366.6" y="533.5" class="st0" width="33.3" height="33.3"/>
	<rect x="333.3" y="533.5" class="st0" width="33.3" height="33.3"/>
	<rect x="299.9" y="533.5" class="st0" width="33.3" height="33.3"/>
	<rect x="266.6" y="533.5" class="st0" width="33.3" height="33.3"/>
	<rect x="233.2" y="533.5" class="st0" width="33.3" height="33.3"/>
	<rect x="199.9" y="533.5" class="st0" width="33.3" height="33.3"/>
	<rect x="166.5" y="533.5" width="33.3" height="33.3"/>
	<rect x="133.2" y="533.5" width="33.3" height="33.3"/>
	<rect x="99.8" y="533.5" class="st0" width="33.3" height="33.3"/>
	<rect x="66.5" y="533.5" class="st0" width="33.3" height="33.3"/>
	<rect x="700.1" y="500.1" class="st0" width="33.3" height="33.3"/>
	<rect x="666.8" y="500.1" class="st0" width="33.3" height="33.3"/>
	<rect x="633.4" y="500.1" width="33.3" height="33.3"/>
	<rect x="600.1" y="500.1" width="33.3" height="33.3"/>
	<rect x="566.7" y="500.1" class="st0" width="33.3" height="33.3"/>
	<rect x="533.4" y="500.1" class="st0" width="33.3" height="33.3"/>
	<rect x="500" y="500.1" class="st0" width="33.3" height="33.3"/>
	<rect x="466.7" y="500.1" class="st0" width="33.3" height="33.3"/>
	<rect x="433.3" y="500.1" width="33.3" height="33.3"/>
	<rect x="400" y="500.1" width="33.3" height="33.3"/>
	<rect x="366.6" y="500.1" width="33.3" height="33.3"/>
	<rect x="333.3" y="500.1" width="33.3" height="33.3"/>
	<rect x="299.9" y="500.1" class="st0" width="33.3" height="33.3"/>
	<rect x="266.6" y="500.1" class="st0" width="33.3" height="33.3"/>
	<rect x="233.2" y="500.1" class="st0" width="33.3" height="33.3"/>
	<rect x="199.9" y="500.1" class="st0" width="33.3" height="33.3"/>
	<rect x="166.5" y="500.1" width="33.3" height="33.3"/>
	<rect x="133.2" y="500.1" width="33.3" height="33.3"/>
	<rect x="99.8" y="500.1" class="st0" width="33.3" height="33.3"/>
	<rect x="66.5" y="500.1" class="st0" width="33.3" height="33.3"/>
	<rect x="700.1" y="466.8" class="st0" width="33.3" height="33.3"/>
	<rect x="666.8" y="466.8" width="33.3" height="33.3"/>
	<rect x="633.4" y="466.8" width="33.3" height="33.3"/>
	<rect x="600.1" y="466.8" width="33.3" height="33.3"/>
	<rect x="566.7" y="466.8" class="st0" width="33.3" height="33.3"/>
	<rect x="533.4" y="466.8" class="st0" width="33.3" height="33.3"/>
	<rect x="500" y="466.8" class="st0" width="33.3" height="33.3"/>
	<rect x="466.7" y="466.8" width="33.3" height="33.3"/>
	<rect x="433.3" y="466.8" width="33.3" height="33.3"/>
	<rect x="400" y="466.8" width="33.3" height="33.3"/>
	<rect x="366.6" y="466.8" width="33.3" height="33.3"/>
	<rect x="333.3" y="466.8" width="33.3" height="33.3"/>
	<rect x="299.9" y="466.8" width="33.3" height="33.3"/>
	<rect x="266.6" y="466.8" class="st0" width="33.3" height="33.3"/>
	<rect x="233.2" y="466.8" class="st0" width="33.3" height="33.3"/>
	<rect x="199.9" y="466.8" class="st0" width="33.3" height="33.3"/>
	<rect x="166.5" y="466.8" width="33.3" height="33.3"/>
	<rect x="133.2" y="466.8" width="33.3" height="33.3"/>
	<rect x="99.8" y="466.8" width="33.3" height="33.3"/>
	<rect x="66.5" y="466.8" class="st0" width="33.3" height="33.3"/>
	<rect x="700.1" y="433.4" width="33.3" height="33.3"/>
	<rect x="666.8" y="433.4" width="33.3" height="33.3"/>
	<rect x="633.4" y="433.4" width="33.3" height="33.3"/>
	<rect x="600.1" y="433.4" class="st0" width="33.3" height="33.3"/>
	<rect x="566.7" y="433.4" class="st0" width="33.3" height="33.3"/>
	<rect x="533.4" y="433.4" class="st0" width="33.3" height="33.3"/>
	<rect x="500" y="433.4" width="33.3" height="33.3"/>
	<rect x="466.7" y="433.4" width="33.3" height="33.3"/>
	<rect x="433.3" y="433.4" class="st1" width="33.3" height="33.3"/>
	<rect x="400" y="433.4" class="st0" width="33.3" height="33.3"/>
	<rect x="366.6" y="433.4" class="st0" width="33.3" height="33.3"/>
	<rect x="333.3" y="433.4" width="33.3" height="33.3"/>
	<rect x="299.9" y="433.4" width="33.3" height="33.3"/>
	<rect x="266.6" y="433.4" width="33.3" height="33.3"/>
	<rect x="233.2" y="433.4" class="st0" width="33.3" height="33.3"/>
	<rect x="199.9" y="433.4" class="st0" width="33.3" height="33.3"/>
	<rect x="166.5" y="433.4" class="st0" width="33.3" height="33.3"/>
	<rect x="133.2" y="433.4" width="33.3" height="33.3"/>
	<rect x="99.8" y="433.4" width="33.3" height="33.3"/>
	<rect x="66.5" y="433.4" width="33.3" height="33.3"/>
	<rect x="700.1" y="400.1" width="33.3" height="33.3"/>
	<rect x="666.8" y="400.1" width="33.3" height="33.3"/>
	<rect x="633.4" y="400.1" class="st0" width="33.3" height="33.3"/>
	<rect x="600.1" y="400.1" class="st0" width="33.3" height="33.3"/>
	<rect x="566.7" y="400.1" class="st0" width="33.3" height="33.3"/>
	<rect x="533.4" y="400.1" class="st0" width="33.3" height="33.3"/>
	<rect x="500" y="400.1" width="33.3" height="33.3"/>
	<rect x="466.7" y="400.1" width="33.3" height="33.3"/>
	<rect x="433.3" y="400.1" class="st0" width="33.3" height="33.3"/>
	<rect x="400" y="400.1" class="st0" width="33.3" height="33.3"/>
	<rect x="366.6" y="400.1" class="st0" width="33.3" height="33.3"/>
	<rect x="333.3" y="400.1" class="st0" width="33.3" height="33.3"/>
	<rect x="299.9" y="400.1" width="33.3" height="33.3"/>
	<rect x="266.6" y="400.1" width="33.3" height="33.3"/>
	<rect x="233.2" y="400.1" class="st0" width="33.3" height="33.3"/>
	<rect x="199.9" y="400.1" class="st0" width="33.3" height="33.3"/>
	<rect x="166.5" y="400.1" class="st0" width="33.3" height="33.3"/>
	<rect x="133.2" y="400.1" class="st0" width="33.3" height="33.3"/>
	<rect x="99.8" y="400.1" width="33.3" height="33.3"/>
	<rect x="66.5" y="400.1" width="33.3" height="33.3"/>
	<rect x="700.1" y="366.7" width="33.3" height="33.3"/>
	<rect x="666.8" y="366.7" width="33.3" height="33.3"/>
	<rect x="633.4" y="366.7" class="st0" width="33.3" height="33.3"/>
	<rect x="600.1" y="366.7" class="st0" width="33.3" height="33.3"/>
	<rect x="566.7" y="366.7" class="st0" width="33.3" height="33.3"/>
	<rect x="533.4" y="366.7" class="st0" width="33.3" height="33.3"/>
	<rect x="500" y="366.7" width="33.3" height="33.3"/>
	<rect x="466.7" y="366.7" width="33.3" height="33.3"/>
	<rect x="433.3" y="366.7" class="st0" width="33.3" height="33.3"/>
	<rect x="400" y="366.7" class="st0" width="33.3" height="33.3"/>
	<rect x="366.6" y="366.7" class="st0" width="33.3" height="33.3"/>
	<rect x="333.3" y="366.7" class="st0" width="33.3" height="33.3"/>
	<rect x="299.9" y="366.7" width="33.3" height="33.3"/>
	<rect x="266.6" y="366.7" width="33.3" height="33.3"/>
	<rect x="233.2" y="366.7" class="st0" width="33.3" height="33.3"/>
	<rect x="199.9" y="366.7" class="st0" width="33.3" height="33.3"/>
	<rect x="166.5" y="366.7" class="st0" width="33.3" height="33.3"/>
	<rect x="133.2" y="366.7" class="st0" width="33.3" height="33.3"/>
	<rect x="99.8" y="366.7" width="33.3" height="33.3"/>
	<rect x="66.5" y="366.7" width="33.3" height="33.3"/>
	<rect x="700.1" y="333.4" width="33.3" height="33.3"/>
	<rect x="666.8" y="333.4" width="33.3" height="33.3"/>
	<rect x="633.4" y="333.4" width="33.3" height="33.3"/>
	<rect x="600.1" y="333.4" class="st0" width="33.3" height="33.3"/>
	<rect x="566.7" y="333.4" class="st0" width="33.3" height="33.3"/>
	<rect x="533.4" y="333.4" class="st0" width="33.3" height="33.3"/>
	<rect x="500" y="333.4" width="33.3" height="33.3"/>
	<rect x="466.7" y="333.4" width="33.3" height="33.3"/>
	<rect x="433.3" y="333.4" width="33.3" height="33.3"/>
	<rect x="400" y="333.4" class="st0" width="33.3" height="33.3"/>
	<rect x="366.6" y="333.4" class="st0" width="33.3" height="33.3"/>
	<rect x="333.3" y="333.4" width="33.3" height="33.3"/>
	<rect x="299.9" y="333.4" width="33.3" height="33.3"/>
	<rect x="266.6" y="333.4" width="33.3" height="33.3"/>
	<rect x="233.2" y="333.4" class="st0" width="33.3" height="33.3"/>
	<rect x="199.9" y="333.4" class="st0" width="33.3" height="33.3"/>
	<rect x="166.5" y="333.4" class="st0" width="33.3" height="33.3"/>
	<rect x="133.2" y="333.4" width="33.3" height="33.3"/>
	<rect x="99.8" y="333.4" width="33.3" height="33.3"/>
	<rect x="66.5" y="333.4" width="33.3" height="33.3"/>
	<rect x="700.1" y="300" class="st0" width="33.3" height="33.3"/>
	<rect x="666.8" y="300" width="33.3" height="33.3"/>
	<rect x="633.4" y="300" width="33.3" height="33.3"/>
	<rect x="600.1" y="300" width="33.3" height="33.3"/>
	<rect x="566.7" y="300" class="st0" width="33.3" height="33.3"/>
	<rect x="533.4" y="300" class="st0" width="33.3" height="33.3"/>
	<rect x="500" y="300" class="st0" width="33.3" height="33.3"/>
	<rect x="466.7" y="300" width="33.3" height="33.3"/>
	<rect x="433.3" y="300" width="33.3" height="33.3"/>
	<rect x="400" y="300" width="33.3" height="33.3"/>
	<rect x="366.6" y="300" width="33.3" height="33.3"/>
	<rect x="333.3" y="300" width="33.3" height="33.3"/>
	<rect x="299.9" y="300" width="33.3" height="33.3"/>
	<rect x="266.6" y="300" class="st0" width="33.3" height="33.3"/>
	<rect x="233.2" y="300" class="st0" width="33.3" height="33.3"/>
	<rect x="199.9" y="300" class="st0" width="33.3" height="33.3"/>
	<rect x="166.5" y="300" width="33.3" height="33.3"/>
	<rect x="133.2" y="300" width="33.3" height="33.3"/>
	<rect x="99.8" y="300" width="33.3" height="33.3"/>
	<rect x="66.5" y="300" class="st0" width="33.3" height="33.3"/>
	<rect x="700.1" y="266.7" class="st0" width="33.3" height="33.3"/>
	<rect x="666.8" y="266.7" class="st0" width="33.3" height="33.3"/>
	<rect x="633.4" y="266.7" width="33.3" height="33.3"/>
	<rect x="600.1" y="266.7" width="33.3" height="33.3"/>
	<rect x="566.7" y="266.7" class="st0" width="33.3" height="33.3"/>
	<rect x="533.4" y="266.7" class="st0" width="33.3" height="33.3"/>
	<rect x="500" y="266.7" class="st0" width="33.3" height="33.3"/>
	<rect x="466.7" y="266.7" class="st0" width="33.3" height="33.3"/>
	<rect x="433.3" y="266.7" width="33.3" height="33.3"/>
	<rect x="400" y="266.7" width="33.3" height="33.3"/>
	<rect x="366.6" y="266.7" width="33.3" height="33.3"/>
	<rect x="333.3" y="266.7" width="33.3" height="33.3"/>
	<rect x="299.9" y="266.7" class="st0" width="33.3" height="33.3"/>
	<rect x="266.6" y="266.7" class="st0" width="33.3" height="33.3"/>
	<rect x="233.2" y="266.7" class="st0" width="33.3" height="33.3"/>
	<rect x="199.9" y="266.7" class="st0" width="33.3" height="33.3"/>
	<rect x="166.5" y="266.7" width="33.3" height="33.3"/>
	<rect x="133.2" y="266.7" width="33.3" height="33.3"/>
	<rect x="99.8" y="266.7" class="st0" width="33.3" height="33.3"/>
	<rect x="66.5" y="266.7" class="st0" width="33.3" height="33.3"/>
	<rect x="700.1" y="233.3" class="st0" width="33.3" height="33.3"/>
	<rect x="666.8" y="233.3" class="st0" width="33.3" height="33.3"/>
	<rect x="633.4" y="233.3" width="33.3" height="33.3"/>
	<rect x="600.1" y="233.3" width="33.3" height="33.3"/>
	<rect x="566.7" y="233.3" class="st0" width="33.3" height="33.3"/>
	<rect x="533.4" y="233.3" class="st0" width="33.3" height="33.3"/>
	<rect x="500" y="233.3" class="st0" width="33.3" height="33.3"/>
	<rect x="466.7" y="233.3" class="st0" width="33.3" height="33.3"/>
	<rect x="433.3" y="233.3" class="st0" width="33.3" height="33.3"/>
	<rect x="400" y="233.3" class="st0" width="33.3" height="33.3"/>
	<rect x="366.6" y="233.3" class="st0" width="33.3" height="33.3"/>
	<rect x="333.3" y="233.3" class="st0" width="33.3" height="33.3"/>
	<rect x="299.9" y="233.3" class="st0" width="33.3" height="33.3"/>
	<rect x="266.6" y="233.3" class="st0" width="33.3" height="33.3"/>
	<rect x="233.2" y="233.3" class="st0" width="33.3" height="33.3"/>
	<rect x="199.9" y="233.3" class="st0" width="33.3" height="33.3"/>
	<rect x="166.5" y="233.3" width="33.3" height="33.3"/>
	<rect x="133.2" y="233.3" width="33.3" height="33.3"/>
	<rect x="99.8" y="233.3" class="st0" width="33.3" height="33.3"/>
	<rect x="66.5" y="233.3" class="st0" width="33.3" height="33.3"/>
	<rect x="700.1" y="200" class="st0" width="33.3" height="33.3"/>
	<rect x="666.8" y="200" class="st0" width="33.3" height="33.3"/>
	<rect x="633.4" y="200" width="33.3" height="33.3"/>
	<rect x="600.1" y="200" width="33.3" height="33.3"/>
	<rect x="566.7" y="200" class="st0" width="33.3" height="33.3"/>
	<rect x="533.4" y="200" class="st0" width="33.3" height="33.3"/>
	<rect x="500" y="200" class="st0" width="33.3" height="33.3"/>
	<rect x="466.7" y="200" class="st0" width="33.3" height="33.3"/>
	<rect x="433.3" y="200" class="st0" width="33.3" height="33.3"/>
	<rect x="400" y="200" class="st0" width="33.3" height="33.3"/>
	<rect x="366.6" y="200" class="st0" width="33.3" height="33.3"/>
	<rect x="333.3" y="200" class="st0" width="33.3" height="33.3"/>
	<rect x="299.9" y="200" class="st0" width="33.3" height="33.3"/>
	<rect x="266.6" y="200" class="st0" width="33.3" height="33.3"/>
	<rect x="233.2" y="200" class="st0" width="33.3" height="33.3"/>
	<rect x="199.9" y="200" class="st0" width="33.3" height="33.3"/>
	<rect x="166.5" y="200" width="33.3" height="33.3"/>
	<rect x="133.2" y="200" width="33.3" height="33.3"/>
	<rect x="99.8" y="200" class="st0" width="33.3" height="33.3"/>
	<rect x="66.5" y="200" class="st0" width="33.3" height="33.3"/>
	<rect x="700.1" y="166.6" class="st0" width="33.3" height="33.3"/>
	<rect x="666.8" y="166.6" class="st0" width="33.3" height="33.3"/>
	<rect x="633.4" y="166.6" width="33.3" height="33.3"/>
	<rect x="600.1" y="166.6" width="33.3" height="33.3"/>
	<rect x="566.7" y="166.6" width="33.3" height="33.3"/>
	<rect x="533.4" y="166.6" width="33.3" height="33.3"/>
	<rect x="500" y="166.6" width="33.3" height="33.3"/>
	<rect x="466.7" y="166.6" width="33.3" height="33.3"/>
	<rect x="433.3" y="166.6" class="st0" width="33.3" height="33.3"/>
	<rect x="400" y="166.6" class="st0" width="33.3" height="33.3"/>
	<rect x="366.6" y="166.6" class="st0" width="33.3" height="33.3"/>
	<linearGradient id="SVGID_1_" gradientUnits="userSpaceOnUse" x1="333.28" y1="183.285" x2="366.63" y2="183.285">
		<stop  offset="0" style="stop-color:#FFFFFF"/>
		<stop  offset="1" style="stop-color:#FFFFFF"/>
	</linearGradient>
	<rect x="333.3" y="166.6" class="st2" width="33.3" height="33.3"/>
	<rect x="299.9" y="166.6" width="33.3" height="33.3"/>
	<rect x="266.6" y="166.6" width="33.3" height="33.3"/>
	<rect x="233.2" y="166.6" width="33.3" height="33.3"/>
	<rect x="199.9" y="166.6" width="33.3" height="33.3"/>
	<rect x="166.5" y="166.6" width="33.3" height="33.3"/>
	<rect x="133.2" y="166.6" width="33.3" height="33.3"/>
	<rect x="99.8" y="166.6" class="st0" width="33.3" height="33.3"/>
	<rect x="66.5" y="166.6" class="st0" width="33.3" height="33.3"/>
	<rect x="700.1" y="133.3" class="st0" width="33.3" height="33.3"/>
	<rect x="666.8" y="133.3" class="st0" width="33.3" height="33.3"/>
	<rect x="633.4" y="133.3" class="st0" width="33.3" height="33.3"/>
	<rect x="600.1" y="133.3" width="33.3" height="33.3"/>
	<rect x="566.7" y="133.3" width="33.3" height="33.3"/>
	<rect x="533.4" y="133.3" width="33.3" height="33.3"/>
	<rect x="500" y="133.3" width="33.3" height="33.3"/>
	<rect x="466.7" y="133.3" width="33.3" height="33.3"/>
	<rect x="433.3" y="133.3" width="33.3" height="33.3"/>
	<rect x="400" y="133.3" class="st0" width="33.3" height="33.3"/>
	<rect x="366.6" y="133.3" class="st0" width="33.3" height="33.3"/>
	<rect x="333.3" y="133.3" width="33.3" height="33.3"/>
	<rect x="299.9" y="133.3" width="33.3" height="33.3"/>
	<rect x="266.6" y="133.3" width="33.3" height="33.3"/>
	<rect x="233.2" y="133.3" width="33.3" height="33.3"/>
	<rect x="199.9" y="133.3" width="33.3" height="33.3"/>
	<rect x="166.5" y="133.3" width="33.3" height="33.3"/>
	<rect x="133.2" y="133.3" class="st0" width="33.3" height="33.3"/>
	<rect x="99.8" y="133.3" class="st0" width="33.3" height="33.3"/>
	<rect x="66.5" y="133.3" class="st0" width="33.3" height="33.3"/>
	<rect x="700.1" y="99.9" class="st0" width="33.3" height="33.3"/>
	<rect x="666.8" y="99.9" class="st0" width="33.3" height="33.3"/>
	<rect x="633.4" y="99.9" class="st0" width="33.3" height="33.3"/>
	<rect x="600.1" y="99.9" class="st0" width="33.3" height="33.3"/>
	<rect x="566.7" y="99.9" class="st0" width="33.3" height="33.3"/>
	<rect x="533.4" y="99.9" class="st0" width="33.3" height="33.3"/>
	<rect x="500" y="99.9" class="st0" width="33.3" height="33.3"/>
	<rect x="466.7" y="99.9" width="33.3" height="33.3"/>
	<rect x="433.3" y="99.9" width="33.3" height="33.3"/>
	<rect x="400" y="99.9" width="33.3" height="33.3"/>
	<rect x="366.6" y="99.9" width="33.3" height="33.3"/>
	<rect x="333.3" y="99.9" width="33.3" height="33.3"/>
	<rect x="299.9" y="99.9" width="33.3" height="33.3"/>
	<rect x="266.6" y="99.9" class="st0" width="33.3" height="33.3"/>
	<rect x="233.2" y="99.9" class="st0" width="33.3" height="33.3"/>
	<rect x="199.9" y="99.9" class="st0" width="33.3" height="33.3"/>
	<rect x="166.5" y="99.9" class="st0" width="33.3" height="33.3"/>
	<rect x="133.2" y="99.9" class="st0" width="33.3" height="33.3"/>
	<rect x="99.8" y="99.9" class="st0" width="33.3" height="33.3"/>
	<rect x="66.5" y="99.9" class="st0" width="33.3" height="33.3"/>
	<rect x="700.1" y="66.6" class="st0" width="33.3" height="33.3"/>
	<rect x="666.8" y="66.6" class="st0" width="33.3" height="33.3"/>
	<rect x="633.4" y="66.6" class="st0" width="33.3" height="33.3"/>
	<rect x="600.1" y="66.6" class="st0" width="33.3" height="33.3"/>
	<rect x="566.7" y="66.6" class="st0" width="33.3" height="33.3"/>
	<rect x="533.4" y="66.6" class="st0" width="33.3" height="33.3"/>
	<rect x="500" y="66.6" class="st0" width="33.3" height="33.3"/>
	<rect x="466.7" y="66.6" class="st0" width="33.3" height="33.3"/>
	<rect x="433.3" y="66.6" width="33.3" height="33.3"/>
	<rect x="400" y="66.6" width="33.3" height="33.3"/>
	<rect x="366.6" y="66.6" width="33.3" height="33.3"/>
	<rect x="333.3" y="66.6" width="33.3" height="33.3"/>
	<rect x="299.9" y="66.6" class="st0" width="33.3" height="33.3"/>
	<rect x="266.6" y="66.6" class="st0" width="33.3" height="33.3"/>
	<rect x="233.2" y="66.6" class="st0" width="33.3" height="33.3"/>
	<rect x="199.9" y="66.6" class="st0" width="33.3" height="33.3"/>
	<rect x="166.5" y="66.6" class="st0" width="33.3" height="33.3"/>
	<rect x="133.2" y="66.6" class="st0" width="33.3" height="33.3"/>
	<rect x="99.8" y="66.6" class="st0" width="33.3" height="33.3"/>
	<rect x="66.5" y="66.6" class="st0" width="33.3" height="33.3"/>
</g>
</svg>
