<svg xmlns="http://www.w3.org/2000/svg" width="32" height="32" viewBox="0 0 32 32"><path d="M14,7 15,7 15,8 14,8 M15,7 16,7 16,8 15,8 M16,7 17,7 17,8 16,8 M17,8 18,8 18,9 17,9 M14,26 15,26 15,27 14,27 M15,26 16,26 16,27 15,27 M16,26 17,26 17,27 16,27 M17,25 18,25 18,26 17,26 M18,9 19,9 19,10 18,10 M18,10 19,10 19,11 18,11 M18,11 19,11 19,12 18,12 M18,12 19,12 19,13 18,13 M18,13 19,13 19,14 18,14 M18,14 19,14 19,15 18,15 M18,15 19,15 19,16 18,16 M18,16 19,16 19,17 18,17 M18,22 19,22 19,23 18,23 M18,24 19,24 19,25 18,25 M18,23 19,23 19,24 18,24 M18,17 19,17 19,18 18,18 M18,18 19,18 19,19 18,19 M17,19 18,19 18,20 17,20 M16,19 17,19 17,20 16,20 M15,18 16,18 16,19 15,19 M15,17 16,17 16,18 15,18 M15,16 16,16 16,17 15,17 M15,15 16,15 16,16 15,16 M15,13 16,13 16,14 15,14 M15,12 16,12 16,13 15,13 M15,14 16,14 16,15 15,15 M15,11 16,11 16,12 15,12 M13,25 14,25 14,26 13,26 M12,24 13,24 13,25 12,25 M12,23 13,23 13,24 12,24 M12,22 13,22 13,23 12,23 M12,21 13,21 13,22 12,22 M12,20 13,20 13,21 12,21 M12,19 13,19 13,20 12,20 M12,18 13,18 13,19 12,19 M12,17 13,17 13,18 12,18 M12,16 13,16 13,17 12,17 M12,15 13,15 13,16 12,16 M12,14 13,14 13,15 12,15 M12,13 13,13 13,14 12,14 M12,12 13,12 13,13 12,13 M12,9 13,9 13,10 12,10 M12,10 13,10 13,11 12,11 M12,11 13,11 13,12 12,12 M13,8 14,8 14,9 13,9 " fill="#000000"></path></svg>