<svg xmlns="http://www.w3.org/2000/svg" width="32" height="32" viewBox="0 0 32 32"><path d="M15,10 16,10 16,11 15,11 M15,11 16,11 16,12 15,12 M15,12 16,12 16,13 15,13 M15,13 16,13 16,14 15,14 M15,15 16,15 16,16 15,16 M15,14 16,14 16,15 15,15 M15,16 16,16 16,17 15,17 M15,18 16,18 16,19 15,19 M15,17 16,17 16,18 15,18 M15,19 16,19 16,20 15,20 M15,20 16,20 16,21 15,21 M10,15 11,15 11,16 10,16 M11,15 12,15 12,16 11,16 M12,15 13,15 13,16 12,16 M14,15 15,15 15,16 14,16 M16,15 17,15 17,16 16,16 M17,15 18,15 18,16 17,16 M18,15 19,15 19,16 18,16 M19,15 20,15 20,16 19,16 M20,15 21,15 21,16 20,16 M16,14 17,14 17,15 16,15 M14,16 15,16 15,17 14,17 M16,16 17,16 17,17 16,17 M13,15 14,15 14,16 13,16 M13,14 14,14 14,15 13,15 M14,14 15,14 15,15 14,15 M14,13 15,13 15,14 14,14 M16,13 17,13 17,14 16,14 M17,14 18,14 18,15 17,15 M13,16 14,16 14,17 13,17 M14,17 15,17 15,18 14,18 M16,17 17,17 17,18 16,18 M17,16 18,16 18,17 17,17 M15,9 16,9 16,10 15,10 M9,15 10,15 10,16 9,16 M21,15 22,15 22,16 21,16 M15,21 16,21 16,22 15,22 " fill="#f9ec00"></path></svg>