<svg xmlns="http://www.w3.org/2000/svg" width="32" height="32" viewBox="0 0 32 32"><path d="M15,10 16,10 16,11 15,11M15,11 16,11 16,12 15,12M15,12 16,12 16,13 15,13M15,13 16,13 16,14 15,14M15,15 16,15 16,16 15,16M15,14 16,14 16,15 15,15M15,16 16,16 16,17 15,17M15,18 16,18 16,19 15,19M15,17 16,17 16,18 15,18M15,19 16,19 16,20 15,20M15,20 16,20 16,21 15,21M10,15 11,15 11,16 10,16M11,15 12,15 12,16 11,16M12,15 13,15 13,16 12,16M14,15 15,15 15,16 14,16M16,15 17,15 17,16 16,16M17,15 18,15 18,16 17,16M18,15 19,15 19,16 18,16M19,15 20,15 20,16 19,16M20,15 21,15 21,16 20,16M16,14 17,14 17,15 16,15M14,16 15,16 15,17 14,17M16,16 17,16 17,17 16,17M13,15 14,15 14,16 13,16M13,14 14,14 14,15 13,15M14,14 15,14 15,15 14,15M14,13 15,13 15,14 14,14M16,13 17,13 17,14 16,14M17,14 18,14 18,15 17,15M13,16 14,16 14,17 13,17M14,17 15,17 15,18 14,18M16,17 17,17 17,18 16,18M17,16 18,16 18,17 17,17M15,9 16,9 16,10 15,10M9,15 10,15 10,16 9,16M21,15 22,15 22,16 21,16M15,21 16,21 16,22 15,22" fill="#f9ec00"><animate attributeName="d" dur="1s" repeatCount="indefinite" calcMode="discrete" values="M15,10 16,10 16,11 15,11M15,11 16,11 16,12 15,12M15,12 16,12 16,13 15,13M15,13 16,13 16,14 15,14M15,15 16,15 16,16 15,16M15,14 16,14 16,15 15,15M15,16 16,16 16,17 15,17M15,18 16,18 16,19 15,19M15,17 16,17 16,18 15,18M15,19 16,19 16,20 15,20M15,20 16,20 16,21 15,21M10,15 11,15 11,16 10,16M11,15 12,15 12,16 11,16M12,15 13,15 13,16 12,16M14,15 15,15 15,16 14,16M16,15 17,15 17,16 16,16M17,15 18,15 18,16 17,16M18,15 19,15 19,16 18,16M19,15 20,15 20,16 19,16M20,15 21,15 21,16 20,16M16,14 17,14 17,15 16,15M14,16 15,16 15,17 14,17M16,16 17,16 17,17 16,17M13,15 14,15 14,16 13,16M13,14 14,14 14,15 13,15M14,14 15,14 15,15 14,15M14,13 15,13 15,14 14,14M16,13 17,13 17,14 16,14M17,14 18,14 18,15 17,15M13,16 14,16 14,17 13,17M14,17 15,17 15,18 14,18M16,17 17,17 17,18 16,18M17,16 18,16 18,17 17,17M15,9 16,9 16,10 15,10M9,15 10,15 10,16 9,16M21,15 22,15 22,16 21,16M15,21 16,21 16,22 15,22;M15,10 16,10 16,11 15,11M15,11 16,11 16,12 15,12M15,12 16,12 16,13 15,13M15,13 16,13 16,14 15,14M15,15 16,15 16,16 15,16M15,14 16,14 16,15 15,15M15,16 16,16 16,17 15,17M15,18 16,18 16,19 15,19M15,17 16,17 16,18 15,18M15,19 16,19 16,20 15,20M15,20 16,20 16,21 15,21M10,15 11,15 11,16 10,16M11,15 12,15 12,16 11,16M12,15 13,15 13,16 12,16M14,15 15,15 15,16 14,16M16,15 17,15 17,16 16,16M17,15 18,15 18,16 17,16M18,15 19,15 19,16 18,16M19,15 20,15 20,16 19,16M20,15 21,15 21,16 20,16M16,14 17,14 17,15 16,15M14,16 15,16 15,17 14,17M16,16 17,16 17,17 16,17M13,15 14,15 14,16 13,16M13,14 14,14 14,15 13,15M14,14 15,14 15,15 14,15M14,13 15,13 15,14 14,14M16,13 17,13 17,14 16,14M17,14 18,14 18,15 17,15M13,16 14,16 14,17 13,17M14,17 15,17 15,18 14,18M16,17 17,17 17,18 16,18M17,16 18,16 18,17 17,17;M15,11 16,11 16,12 15,12M15,12 16,12 16,13 15,13M15,13 16,13 16,14 15,14M15,15 16,15 16,16 15,16M15,14 16,14 16,15 15,15M15,16 16,16 16,17 15,17M15,18 16,18 16,19 15,19M15,17 16,17 16,18 15,18M15,19 16,19 16,20 15,20M11,15 12,15 12,16 11,16M12,15 13,15 13,16 12,16M14,15 15,15 15,16 14,16M16,15 17,15 17,16 16,16M17,15 18,15 18,16 17,16M18,15 19,15 19,16 18,16M19,15 20,15 20,16 19,16M16,14 17,14 17,15 16,15M14,16 15,16 15,17 14,17M16,16 17,16 17,17 16,17M13,15 14,15 14,16 13,16M13,14 14,14 14,15 13,15M14,14 15,14 15,15 14,15M14,13 15,13 15,14 14,14M16,13 17,13 17,14 16,14M17,14 18,14 18,15 17,15M13,16 14,16 14,17 13,17M14,17 15,17 15,18 14,18M16,17 17,17 17,18 16,18M17,16 18,16 18,17 17,17;M15,11 16,11 16,12 15,12M15,12 16,12 16,13 15,13M15,13 16,13 16,14 15,14M15,15 16,15 16,16 15,16M15,14 16,14 16,15 15,15M15,16 16,16 16,17 15,17M15,18 16,18 16,19 15,19M15,17 16,17 16,18 15,18M15,19 16,19 16,20 15,20M11,15 12,15 12,16 11,16M12,15 13,15 13,16 12,16M14,15 15,15 15,16 14,16M16,15 17,15 17,16 16,16M17,15 18,15 18,16 17,16M18,15 19,15 19,16 18,16M19,15 20,15 20,16 19,16M16,14 17,14 17,15 16,15M14,16 15,16 15,17 14,17M16,16 17,16 17,17 16,17M13,15 14,15 14,16 13,16M13,14 14,14 14,15 13,15M14,14 15,14 15,15 14,15M14,13 15,13 15,14 14,14M16,13 17,13 17,14 16,14M17,14 18,14 18,15 17,15M13,16 14,16 14,17 13,17M14,17 15,17 15,18 14,18M16,17 17,17 17,18 16,18M17,16 18,16 18,17 17,17M10,15 11,15 11,16 10,16M15,10 16,10 16,11 15,11M20,15 21,15 21,16 20,16M15,20 16,20 16,21 15,21;M15,11 16,11 16,12 15,12M15,12 16,12 16,13 15,13M15,13 16,13 16,14 15,14M15,15 16,15 16,16 15,16M15,14 16,14 16,15 15,15M15,16 16,16 16,17 15,17M15,18 16,18 16,19 15,19M15,17 16,17 16,18 15,18M15,19 16,19 16,20 15,20M11,15 12,15 12,16 11,16M12,15 13,15 13,16 12,16M14,15 15,15 15,16 14,16M16,15 17,15 17,16 16,16M17,15 18,15 18,16 17,16M18,15 19,15 19,16 18,16M19,15 20,15 20,16 19,16M16,14 17,14 17,15 16,15M14,16 15,16 15,17 14,17M16,16 17,16 17,17 16,17M13,15 14,15 14,16 13,16M13,14 14,14 14,15 13,15M14,14 15,14 15,15 14,15M14,13 15,13 15,14 14,14M16,13 17,13 17,14 16,14M17,14 18,14 18,15 17,15M13,16 14,16 14,17 13,17M14,17 15,17 15,18 14,18M16,17 17,17 17,18 16,18M17,16 18,16 18,17 17,17M10,15 11,15 11,16 10,16M15,10 16,10 16,11 15,11M20,15 21,15 21,16 20,16M15,20 16,20 16,21 15,21M9,15 10,15 10,16 9,16M15,9 16,9 16,10 15,10M21,15 22,15 22,16 21,16M15,21 16,21 16,22 15,22;"/></path></svg>