<svg width="99" height="99" viewBox="0 0 99 99" fill="none" xmlns="http://www.w3.org/2000/svg">
<path d="M16.5 16.5H24.75V24.75H16.5M8.25 8.25H16.5V16.5H8.25M0 0H8.25V8.25H0M24.75 24.75H33V33H24.75M33 33H41.25V41.25H33M57.75 33H66V41.25H57.75M33 57.75H41.25V66H33M57.75 57.75H66V66H57.75M66 24.75H74.25V33H66M74.25 16.5H82.5V24.75H74.25M82.5 8.25H90.75V16.5H82.5M90.75 0H99V8.25H90.75M66 66H74.25V74.25H66M74.25 74.25H82.5V82.5H74.25M82.5 82.5H90.75V90.75H82.5M90.75 90.75H99V99H90.75M24.75 66H33V74.25H24.75M16.5 74.25H24.75V82.5H16.5M8.25 82.5H16.5V90.75H8.25M0 90.75H8.25V99H0" fill="white"/>
</svg>
