<svg width="251" height="241" viewBox="0 0 251 241" fill="none" xmlns="http://www.w3.org/2000/svg">
<path d="M48.125 115.5H57.75V125.125H48.125M57.75 115.5H67.375V125.125H57.75M67.375 115.5H77V125.125H67.375M77 115.5H86.625V125.125H77M86.625 115.5H96.25V125.125H86.625M96.25 115.5H105.875V125.125H96.25M125.125 115.5H134.75V125.125H125.125M134.75 115.5H144.375V125.125H134.75M163.625 115.5H173.25V125.125H163.625M154 115.5H163.625V125.125H154M0 115.5H9.625V125.125H0M19.25 115.5H28.875V125.125H19.25M28.875 115.5H38.5V125.125H28.875M38.5 115.5H48.125V125.125H38.5M9.625 115.5H19.25V125.125H9.625M240.625 115.5H250.25V125.125H240.625M115.5 125.125H125.125V134.75H115.5M125.125 125.125H134.75V134.75H125.125M134.75 125.125H144.375V134.75H134.75M144.375 134.75H154V144.375H144.375M115.5 105.875H125.125V115.5H115.5M125.125 105.875H134.75V115.5H125.125M134.75 105.875H144.375V115.5H134.75M173.25 115.5H182.875V125.125H173.25M105.875 96.25H115.5V105.875H105.875M144.375 96.25H154V105.875H144.375M125.125 86.625H134.75V96.25H125.125M125.125 77H134.75V86.625H125.125M125.125 67.375H134.75V77H125.125M125.125 57.75H134.75V67.375H125.125M125.125 48.125H134.75V57.75H125.125M125.125 38.5H134.75V48.125H125.125M125.125 19.25H134.75V28.875H125.125M125.125 9.625H134.75V19.25H125.125M125.125 0H134.75V9.625H125.125M125.125 28.875H134.75V38.5H125.125M125.125 144.375H134.75V154H125.125M125.125 154H134.75V163.625H125.125M125.125 163.625H134.75V173.25H125.125M125.125 173.25H134.75V182.875H125.125M125.125 221.375H134.75V231H125.125M125.125 231H134.75V240.625H125.125M231 115.5H240.625V125.125H231M182.875 115.5H192.5V125.125H182.875M192.5 115.5H202.125V125.125H192.5M202.125 115.5H211.75V125.125H202.125M211.75 115.5H221.375V125.125H211.75M221.375 115.5H231V125.125H221.375M105.875 134.75H115.5V144.375H105.875M125.125 182.875H134.75V192.5H125.125M125.125 192.5H134.75V202.125H125.125M125.125 202.125H134.75V211.75H125.125M125.125 211.75H134.75V221.375H125.125M154 86.625H163.625V96.25H154M163.625 77H173.25V86.625H163.625M182.875 57.75H192.5V67.375H182.875M173.25 67.375H182.875V77H173.25M154 144.375H163.625V154H154M163.625 154H173.25V163.625H163.625M173.25 163.625H182.875V173.25H173.25M182.875 173.25H192.5V182.875H182.875M192.5 182.875H202.125V192.5H192.5M96.25 144.375H105.875V154H96.25M86.625 154H96.25V163.625H86.625M77 163.625H86.625V173.25H77M67.375 173.25H77V182.875H67.375M57.75 182.875H67.375V192.5H57.75M96.25 86.625H105.875V96.25H96.25M77 67.375H86.625V77H77M86.625 77H96.25V86.625H86.625M67.375 57.75H77V67.375H67.375M57.75 48.125H67.375V57.75H57.75M192.5 48.125H202.125V57.75H192.5M105.875 115.5H115.5V125.125H105.875M115.5 115.5H125.125V125.125H115.5M125.125 96.25H134.75V105.875H125.125M144.375 115.5H154V125.125H144.375M125.125 134.75H134.75V144.375H125.125M48.125 38.5H57.75V48.125H48.125M202.125 38.5H211.75V48.125H202.125M202.125 192.5H211.75V202.125H202.125M48.125 192.5H57.75V202.125H48.125M38.5 202.125H48.125V211.75H38.5M38.5 28.875H48.125V38.5H38.5M211.75 28.875H221.375V38.5H211.75M211.75 202.125H221.375V211.75H211.75" fill="#FFB302"/>
</svg>
