<svg xmlns="http://www.w3.org/2000/svg" width="32" height="32" viewBox="0 0 32 32"><path d="M15,5 16,5 16,6 15,6M15,6 16,6 16,7 15,7M15,7 16,7 16,8 15,8M15,8 16,8 16,9 15,9M15,9 16,9 16,10 15,10M15,10 16,10 16,11 15,11M15,12 16,12 16,13 15,13M15,11 16,11 16,12 15,12M15,13 16,13 16,14 15,14M15,14 16,14 16,15 15,15M15,16 16,16 16,17 15,17M15,18 16,18 16,19 15,19M15,17 16,17 16,18 15,18M15,19 16,19 16,20 15,20M15,20 16,20 16,21 15,21M15,21 16,21 16,22 15,22M15,22 16,22 16,23 15,23M15,23 16,23 16,24 15,24M15,24 16,24 16,25 15,25M14,15 15,15 15,16 14,16M15,15 16,15 16,16 15,16M16,15 17,15 17,16 16,16M17,15 18,15 18,16 17,16M18,15 19,15 19,16 18,16M13,15 14,15 14,16 13,16M12,15 13,15 13,16 12,16M10,15 11,15 11,16 10,16M11,15 12,15 12,16 11,16M19,15 20,15 20,16 19,16M20,15 21,15 21,16 20,16M21,15 22,15 22,16 21,16M22,15 23,15 23,16 22,16M23,15 24,15 24,16 23,16M9,15 10,15 10,16 9,16M8,15 9,15 9,16 8,16M7,15 8,15 8,16 7,16M15,25 16,25 16,26 15,26M24,15 25,15 25,16 24,16M25,15 26,15 26,16 25,16M6,15 7,15 7,16 6,16M5,15 6,15 6,16 5,16M16,14 17,14 17,15 16,15M14,14 15,14 15,15 14,15M14,16 15,16 15,17 14,17M16,16 17,16 17,17 16,17M17,13 18,13 18,14 17,14M18,12 19,12 19,13 18,13M19,11 20,11 20,12 19,12M20,10 21,10 21,11 20,11M21,9 22,9 22,10 21,10M22,8 23,8 23,9 22,9M17,17 18,17 18,18 17,18M18,18 19,18 19,19 18,19M19,19 20,19 20,20 19,20M20,20 21,20 21,21 20,21M21,21 22,21 22,22 21,22M22,22 23,22 23,23 22,23M13,17 14,17 14,18 13,18M12,18 13,18 13,19 12,19M11,19 12,19 12,20 11,20M10,20 11,20 11,21 10,21M9,21 10,21 10,22 9,22M8,22 9,22 9,23 8,23M13,13 14,13 14,14 13,14M12,12 13,12 13,13 12,13M11,11 12,11 12,12 11,12M10,10 11,10 11,11 10,11M9,9 10,9 10,10 9,10M8,8 9,8 9,9 8,9" fill="#ff8c24"><animate attributeName="d" dur="1s" repeatCount="indefinite" calcMode="discrete" values="M15,5 16,5 16,6 15,6M15,6 16,6 16,7 15,7M15,7 16,7 16,8 15,8M15,8 16,8 16,9 15,9M15,9 16,9 16,10 15,10M15,10 16,10 16,11 15,11M15,12 16,12 16,13 15,13M15,11 16,11 16,12 15,12M15,13 16,13 16,14 15,14M15,14 16,14 16,15 15,15M15,16 16,16 16,17 15,17M15,18 16,18 16,19 15,19M15,17 16,17 16,18 15,18M15,19 16,19 16,20 15,20M15,20 16,20 16,21 15,21M15,21 16,21 16,22 15,22M15,22 16,22 16,23 15,23M15,23 16,23 16,24 15,24M15,24 16,24 16,25 15,25M14,15 15,15 15,16 14,16M15,15 16,15 16,16 15,16M16,15 17,15 17,16 16,16M17,15 18,15 18,16 17,16M18,15 19,15 19,16 18,16M13,15 14,15 14,16 13,16M12,15 13,15 13,16 12,16M10,15 11,15 11,16 10,16M11,15 12,15 12,16 11,16M19,15 20,15 20,16 19,16M20,15 21,15 21,16 20,16M21,15 22,15 22,16 21,16M22,15 23,15 23,16 22,16M23,15 24,15 24,16 23,16M9,15 10,15 10,16 9,16M8,15 9,15 9,16 8,16M7,15 8,15 8,16 7,16M15,25 16,25 16,26 15,26M24,15 25,15 25,16 24,16M25,15 26,15 26,16 25,16M6,15 7,15 7,16 6,16M5,15 6,15 6,16 5,16M16,14 17,14 17,15 16,15M14,14 15,14 15,15 14,15M14,16 15,16 15,17 14,17M16,16 17,16 17,17 16,17M17,13 18,13 18,14 17,14M18,12 19,12 19,13 18,13M19,11 20,11 20,12 19,12M20,10 21,10 21,11 20,11M21,9 22,9 22,10 21,10M22,8 23,8 23,9 22,9M17,17 18,17 18,18 17,18M18,18 19,18 19,19 18,19M19,19 20,19 20,20 19,20M20,20 21,20 21,21 20,21M21,21 22,21 22,22 21,22M22,22 23,22 23,23 22,23M13,17 14,17 14,18 13,18M12,18 13,18 13,19 12,19M11,19 12,19 12,20 11,20M10,20 11,20 11,21 10,21M9,21 10,21 10,22 9,22M8,22 9,22 9,23 8,23M13,13 14,13 14,14 13,14M12,12 13,12 13,13 12,13M11,11 12,11 12,12 11,12M10,10 11,10 11,11 10,11M9,9 10,9 10,10 9,10M8,8 9,8 9,9 8,9;M15,5 16,5 16,6 15,6M15,6 16,6 16,7 15,7M15,7 16,7 16,8 15,8M15,8 16,8 16,9 15,9M15,9 16,9 16,10 15,10M15,10 16,10 16,11 15,11M15,12 16,12 16,13 15,13M15,11 16,11 16,12 15,12M15,13 16,13 16,14 15,14M15,14 16,14 16,15 15,15M15,16 16,16 16,17 15,17M15,18 16,18 16,19 15,19M15,17 16,17 16,18 15,18M15,19 16,19 16,20 15,20M15,20 16,20 16,21 15,21M15,21 16,21 16,22 15,22M15,22 16,22 16,23 15,23M15,23 16,23 16,24 15,24M15,24 16,24 16,25 15,25M14,15 15,15 15,16 14,16M15,15 16,15 16,16 15,16M16,15 17,15 17,16 16,16M17,15 18,15 18,16 17,16M18,15 19,15 19,16 18,16M13,15 14,15 14,16 13,16M12,15 13,15 13,16 12,16M10,15 11,15 11,16 10,16M11,15 12,15 12,16 11,16M19,15 20,15 20,16 19,16M20,15 21,15 21,16 20,16M21,15 22,15 22,16 21,16M22,15 23,15 23,16 22,16M23,15 24,15 24,16 23,16M9,15 10,15 10,16 9,16M8,15 9,15 9,16 8,16M7,15 8,15 8,16 7,16M15,25 16,25 16,26 15,26M24,15 25,15 25,16 24,16M25,15 26,15 26,16 25,16M6,15 7,15 7,16 6,16M5,15 6,15 6,16 5,16M16,14 17,14 17,15 16,15M14,14 15,14 15,15 14,15M14,16 15,16 15,17 14,17M16,16 17,16 17,17 16,17M17,13 18,13 18,14 17,14M18,12 19,12 19,13 18,13M19,11 20,11 20,12 19,12M20,10 21,10 21,11 20,11M21,9 22,9 22,10 21,10M22,8 23,8 23,9 22,9M17,17 18,17 18,18 17,18M18,18 19,18 19,19 18,19M19,19 20,19 20,20 19,20M20,20 21,20 21,21 20,21M21,21 22,21 22,22 21,22M22,22 23,22 23,23 22,23M13,17 14,17 14,18 13,18M12,18 13,18 13,19 12,19M11,19 12,19 12,20 11,20M10,20 11,20 11,21 10,21M9,21 10,21 10,22 9,22M8,22 9,22 9,23 8,23M13,13 14,13 14,14 13,14M12,12 13,12 13,13 12,13M11,11 12,11 12,12 11,12M10,10 11,10 11,11 10,11M9,9 10,9 10,10 9,10M8,8 9,8 9,9 8,9;M15,6 16,6 16,7 15,7M15,7 16,7 16,8 15,8M15,8 16,8 16,9 15,9M15,9 16,9 16,10 15,10M15,10 16,10 16,11 15,11M15,12 16,12 16,13 15,13M15,11 16,11 16,12 15,12M15,13 16,13 16,14 15,14M15,14 16,14 16,15 15,15M15,16 16,16 16,17 15,17M15,18 16,18 16,19 15,19M15,17 16,17 16,18 15,18M15,19 16,19 16,20 15,20M15,20 16,20 16,21 15,21M15,21 16,21 16,22 15,22M15,22 16,22 16,23 15,23M15,23 16,23 16,24 15,24M15,24 16,24 16,25 15,25M14,15 15,15 15,16 14,16M15,15 16,15 16,16 15,16M16,15 17,15 17,16 16,16M17,15 18,15 18,16 17,16M18,15 19,15 19,16 18,16M13,15 14,15 14,16 13,16M12,15 13,15 13,16 12,16M10,15 11,15 11,16 10,16M11,15 12,15 12,16 11,16M19,15 20,15 20,16 19,16M20,15 21,15 21,16 20,16M21,15 22,15 22,16 21,16M22,15 23,15 23,16 22,16M23,15 24,15 24,16 23,16M9,15 10,15 10,16 9,16M8,15 9,15 9,16 8,16M7,15 8,15 8,16 7,16M24,15 25,15 25,16 24,16M6,15 7,15 7,16 6,16M16,14 17,14 17,15 16,15M14,14 15,14 15,15 14,15M14,16 15,16 15,17 14,17M16,16 17,16 17,17 16,17M17,13 18,13 18,14 17,14M18,12 19,12 19,13 18,13M19,11 20,11 20,12 19,12M20,10 21,10 21,11 20,11M21,9 22,9 22,10 21,10M17,17 18,17 18,18 17,18M18,18 19,18 19,19 18,19M19,19 20,19 20,20 19,20M20,20 21,20 21,21 20,21M21,21 22,21 22,22 21,22M13,17 14,17 14,18 13,18M12,18 13,18 13,19 12,19M11,19 12,19 12,20 11,20M10,20 11,20 11,21 10,21M9,21 10,21 10,22 9,22M13,13 14,13 14,14 13,14M12,12 13,12 13,13 12,13M11,11 12,11 12,12 11,12M10,10 11,10 11,11 10,11M9,9 10,9 10,10 9,10;M15,6 16,6 16,7 15,7M15,7 16,7 16,8 15,8M15,8 16,8 16,9 15,9M15,9 16,9 16,10 15,10M15,10 16,10 16,11 15,11M15,12 16,12 16,13 15,13M15,11 16,11 16,12 15,12M15,13 16,13 16,14 15,14M15,14 16,14 16,15 15,15M15,16 16,16 16,17 15,17M15,18 16,18 16,19 15,19M15,17 16,17 16,18 15,18M15,19 16,19 16,20 15,20M15,20 16,20 16,21 15,21M15,21 16,21 16,22 15,22M15,22 16,22 16,23 15,23M15,23 16,23 16,24 15,24M15,24 16,24 16,25 15,25M14,15 15,15 15,16 14,16M15,15 16,15 16,16 15,16M16,15 17,15 17,16 16,16M17,15 18,15 18,16 17,16M18,15 19,15 19,16 18,16M13,15 14,15 14,16 13,16M12,15 13,15 13,16 12,16M10,15 11,15 11,16 10,16M11,15 12,15 12,16 11,16M19,15 20,15 20,16 19,16M20,15 21,15 21,16 20,16M21,15 22,15 22,16 21,16M22,15 23,15 23,16 22,16M23,15 24,15 24,16 23,16M9,15 10,15 10,16 9,16M8,15 9,15 9,16 8,16M7,15 8,15 8,16 7,16M24,15 25,15 25,16 24,16M6,15 7,15 7,16 6,16M16,14 17,14 17,15 16,15M14,14 15,14 15,15 14,15M14,16 15,16 15,17 14,17M16,16 17,16 17,17 16,17M17,13 18,13 18,14 17,14M18,12 19,12 19,13 18,13M19,11 20,11 20,12 19,12M20,10 21,10 21,11 20,11M21,9 22,9 22,10 21,10M17,17 18,17 18,18 17,18M18,18 19,18 19,19 18,19M19,19 20,19 20,20 19,20M20,20 21,20 21,21 20,21M21,21 22,21 22,22 21,22M13,17 14,17 14,18 13,18M12,18 13,18 13,19 12,19M11,19 12,19 12,20 11,20M10,20 11,20 11,21 10,21M9,21 10,21 10,22 9,22M13,13 14,13 14,14 13,14M12,12 13,12 13,13 12,13M11,11 12,11 12,12 11,12M10,10 11,10 11,11 10,11M9,9 10,9 10,10 9,10;M15,7 16,7 16,8 15,8M15,8 16,8 16,9 15,9M15,9 16,9 16,10 15,10M15,10 16,10 16,11 15,11M15,12 16,12 16,13 15,13M15,11 16,11 16,12 15,12M15,13 16,13 16,14 15,14M15,14 16,14 16,15 15,15M15,16 16,16 16,17 15,17M15,18 16,18 16,19 15,19M15,17 16,17 16,18 15,18M15,19 16,19 16,20 15,20M15,20 16,20 16,21 15,21M15,21 16,21 16,22 15,22M15,22 16,22 16,23 15,23M15,23 16,23 16,24 15,24M14,15 15,15 15,16 14,16M15,15 16,15 16,16 15,16M16,15 17,15 17,16 16,16M17,15 18,15 18,16 17,16M18,15 19,15 19,16 18,16M13,15 14,15 14,16 13,16M12,15 13,15 13,16 12,16M10,15 11,15 11,16 10,16M11,15 12,15 12,16 11,16M19,15 20,15 20,16 19,16M20,15 21,15 21,16 20,16M21,15 22,15 22,16 21,16M22,15 23,15 23,16 22,16M23,15 24,15 24,16 23,16M9,15 10,15 10,16 9,16M8,15 9,15 9,16 8,16M7,15 8,15 8,16 7,16M16,14 17,14 17,15 16,15M14,14 15,14 15,15 14,15M14,16 15,16 15,17 14,17M16,16 17,16 17,17 16,17M17,13 18,13 18,14 17,14M18,12 19,12 19,13 18,13M19,11 20,11 20,12 19,12M20,10 21,10 21,11 20,11M17,17 18,17 18,18 17,18M18,18 19,18 19,19 18,19M19,19 20,19 20,20 19,20M20,20 21,20 21,21 20,21M13,17 14,17 14,18 13,18M12,18 13,18 13,19 12,19M11,19 12,19 12,20 11,20M10,20 11,20 11,21 10,21M13,13 14,13 14,14 13,14M12,12 13,12 13,13 12,13M11,11 12,11 12,12 11,12M10,10 11,10 11,11 10,11;M15,7 16,7 16,8 15,8M15,8 16,8 16,9 15,9M15,9 16,9 16,10 15,10M15,10 16,10 16,11 15,11M15,12 16,12 16,13 15,13M15,11 16,11 16,12 15,12M15,13 16,13 16,14 15,14M15,14 16,14 16,15 15,15M15,16 16,16 16,17 15,17M15,18 16,18 16,19 15,19M15,17 16,17 16,18 15,18M15,19 16,19 16,20 15,20M15,20 16,20 16,21 15,21M15,21 16,21 16,22 15,22M15,22 16,22 16,23 15,23M15,23 16,23 16,24 15,24M14,15 15,15 15,16 14,16M15,15 16,15 16,16 15,16M16,15 17,15 17,16 16,16M17,15 18,15 18,16 17,16M18,15 19,15 19,16 18,16M13,15 14,15 14,16 13,16M12,15 13,15 13,16 12,16M10,15 11,15 11,16 10,16M11,15 12,15 12,16 11,16M19,15 20,15 20,16 19,16M20,15 21,15 21,16 20,16M21,15 22,15 22,16 21,16M22,15 23,15 23,16 22,16M23,15 24,15 24,16 23,16M9,15 10,15 10,16 9,16M8,15 9,15 9,16 8,16M7,15 8,15 8,16 7,16M16,14 17,14 17,15 16,15M14,14 15,14 15,15 14,15M14,16 15,16 15,17 14,17M16,16 17,16 17,17 16,17M17,13 18,13 18,14 17,14M18,12 19,12 19,13 18,13M19,11 20,11 20,12 19,12M20,10 21,10 21,11 20,11M17,17 18,17 18,18 17,18M18,18 19,18 19,19 18,19M19,19 20,19 20,20 19,20M20,20 21,20 21,21 20,21M13,17 14,17 14,18 13,18M12,18 13,18 13,19 12,19M11,19 12,19 12,20 11,20M10,20 11,20 11,21 10,21M13,13 14,13 14,14 13,14M12,12 13,12 13,13 12,13M11,11 12,11 12,12 11,12M10,10 11,10 11,11 10,11;M15,8 16,8 16,9 15,9M15,9 16,9 16,10 15,10M15,10 16,10 16,11 15,11M15,12 16,12 16,13 15,13M15,11 16,11 16,12 15,12M15,13 16,13 16,14 15,14M15,14 16,14 16,15 15,15M15,16 16,16 16,17 15,17M15,18 16,18 16,19 15,19M15,17 16,17 16,18 15,18M15,19 16,19 16,20 15,20M15,20 16,20 16,21 15,21M15,21 16,21 16,22 15,22M15,22 16,22 16,23 15,23M14,15 15,15 15,16 14,16M15,15 16,15 16,16 15,16M16,15 17,15 17,16 16,16M17,15 18,15 18,16 17,16M18,15 19,15 19,16 18,16M13,15 14,15 14,16 13,16M12,15 13,15 13,16 12,16M10,15 11,15 11,16 10,16M11,15 12,15 12,16 11,16M19,15 20,15 20,16 19,16M20,15 21,15 21,16 20,16M21,15 22,15 22,16 21,16M22,15 23,15 23,16 22,16M9,15 10,15 10,16 9,16M8,15 9,15 9,16 8,16M16,14 17,14 17,15 16,15M14,14 15,14 15,15 14,15M14,16 15,16 15,17 14,17M16,16 17,16 17,17 16,17M17,13 18,13 18,14 17,14M18,12 19,12 19,13 18,13M19,11 20,11 20,12 19,12M17,17 18,17 18,18 17,18M18,18 19,18 19,19 18,19M19,19 20,19 20,20 19,20M13,17 14,17 14,18 13,18M12,18 13,18 13,19 12,19M11,19 12,19 12,20 11,20M13,13 14,13 14,14 13,14M12,12 13,12 13,13 12,13M11,11 12,11 12,12 11,12;M15,8 16,8 16,9 15,9M15,9 16,9 16,10 15,10M15,10 16,10 16,11 15,11M15,12 16,12 16,13 15,13M15,11 16,11 16,12 15,12M15,13 16,13 16,14 15,14M15,14 16,14 16,15 15,15M15,16 16,16 16,17 15,17M15,18 16,18 16,19 15,19M15,17 16,17 16,18 15,18M15,19 16,19 16,20 15,20M15,20 16,20 16,21 15,21M15,21 16,21 16,22 15,22M15,22 16,22 16,23 15,23M14,15 15,15 15,16 14,16M15,15 16,15 16,16 15,16M16,15 17,15 17,16 16,16M17,15 18,15 18,16 17,16M18,15 19,15 19,16 18,16M13,15 14,15 14,16 13,16M12,15 13,15 13,16 12,16M10,15 11,15 11,16 10,16M11,15 12,15 12,16 11,16M19,15 20,15 20,16 19,16M20,15 21,15 21,16 20,16M21,15 22,15 22,16 21,16M22,15 23,15 23,16 22,16M9,15 10,15 10,16 9,16M8,15 9,15 9,16 8,16M16,14 17,14 17,15 16,15M14,14 15,14 15,15 14,15M14,16 15,16 15,17 14,17M16,16 17,16 17,17 16,17M17,13 18,13 18,14 17,14M18,12 19,12 19,13 18,13M19,11 20,11 20,12 19,12M17,17 18,17 18,18 17,18M18,18 19,18 19,19 18,19M19,19 20,19 20,20 19,20M13,17 14,17 14,18 13,18M12,18 13,18 13,19 12,19M11,19 12,19 12,20 11,20M13,13 14,13 14,14 13,14M12,12 13,12 13,13 12,13M11,11 12,11 12,12 11,12;M15,8 16,8 16,9 15,9M15,9 16,9 16,10 15,10M15,10 16,10 16,11 15,11M15,12 16,12 16,13 15,13M15,11 16,11 16,12 15,12M15,13 16,13 16,14 15,14M15,14 16,14 16,15 15,15M15,16 16,16 16,17 15,17M15,18 16,18 16,19 15,19M15,17 16,17 16,18 15,18M15,19 16,19 16,20 15,20M15,20 16,20 16,21 15,21M15,21 16,21 16,22 15,22M15,22 16,22 16,23 15,23M14,15 15,15 15,16 14,16M15,15 16,15 16,16 15,16M16,15 17,15 17,16 16,16M17,15 18,15 18,16 17,16M18,15 19,15 19,16 18,16M13,15 14,15 14,16 13,16M12,15 13,15 13,16 12,16M10,15 11,15 11,16 10,16M11,15 12,15 12,16 11,16M19,15 20,15 20,16 19,16M20,15 21,15 21,16 20,16M21,15 22,15 22,16 21,16M22,15 23,15 23,16 22,16M9,15 10,15 10,16 9,16M8,15 9,15 9,16 8,16M16,14 17,14 17,15 16,15M14,14 15,14 15,15 14,15M14,16 15,16 15,17 14,17M16,16 17,16 17,17 16,17M17,13 18,13 18,14 17,14M18,12 19,12 19,13 18,13M19,11 20,11 20,12 19,12M17,17 18,17 18,18 17,18M18,18 19,18 19,19 18,19M19,19 20,19 20,20 19,20M13,17 14,17 14,18 13,18M12,18 13,18 13,19 12,19M11,19 12,19 12,20 11,20M13,13 14,13 14,14 13,14M12,12 13,12 13,13 12,13M11,11 12,11 12,12 11,12M7,15 8,15 8,16 7,16M10,10 11,10 11,11 10,11M15,7 16,7 16,8 15,8M20,10 21,10 21,11 20,11M23,15 24,15 24,16 23,16M20,20 21,20 21,21 20,21M10,20 11,20 11,21 10,21M15,23 16,23 16,24 15,24;M15,8 16,8 16,9 15,9M15,9 16,9 16,10 15,10M15,10 16,10 16,11 15,11M15,12 16,12 16,13 15,13M15,11 16,11 16,12 15,12M15,13 16,13 16,14 15,14M15,14 16,14 16,15 15,15M15,16 16,16 16,17 15,17M15,18 16,18 16,19 15,19M15,17 16,17 16,18 15,18M15,19 16,19 16,20 15,20M15,20 16,20 16,21 15,21M15,21 16,21 16,22 15,22M15,22 16,22 16,23 15,23M14,15 15,15 15,16 14,16M15,15 16,15 16,16 15,16M16,15 17,15 17,16 16,16M17,15 18,15 18,16 17,16M18,15 19,15 19,16 18,16M13,15 14,15 14,16 13,16M12,15 13,15 13,16 12,16M10,15 11,15 11,16 10,16M11,15 12,15 12,16 11,16M19,15 20,15 20,16 19,16M20,15 21,15 21,16 20,16M21,15 22,15 22,16 21,16M22,15 23,15 23,16 22,16M9,15 10,15 10,16 9,16M8,15 9,15 9,16 8,16M16,14 17,14 17,15 16,15M14,14 15,14 15,15 14,15M14,16 15,16 15,17 14,17M16,16 17,16 17,17 16,17M17,13 18,13 18,14 17,14M18,12 19,12 19,13 18,13M19,11 20,11 20,12 19,12M17,17 18,17 18,18 17,18M18,18 19,18 19,19 18,19M19,19 20,19 20,20 19,20M13,17 14,17 14,18 13,18M12,18 13,18 13,19 12,19M11,19 12,19 12,20 11,20M13,13 14,13 14,14 13,14M12,12 13,12 13,13 12,13M11,11 12,11 12,12 11,12M7,15 8,15 8,16 7,16M10,10 11,10 11,11 10,11M15,7 16,7 16,8 15,8M20,10 21,10 21,11 20,11M23,15 24,15 24,16 23,16M20,20 21,20 21,21 20,21M10,20 11,20 11,21 10,21M15,23 16,23 16,24 15,24;M15,8 16,8 16,9 15,9M15,9 16,9 16,10 15,10M15,10 16,10 16,11 15,11M15,12 16,12 16,13 15,13M15,11 16,11 16,12 15,12M15,13 16,13 16,14 15,14M15,14 16,14 16,15 15,15M15,16 16,16 16,17 15,17M15,18 16,18 16,19 15,19M15,17 16,17 16,18 15,18M15,19 16,19 16,20 15,20M15,20 16,20 16,21 15,21M15,21 16,21 16,22 15,22M15,22 16,22 16,23 15,23M14,15 15,15 15,16 14,16M15,15 16,15 16,16 15,16M16,15 17,15 17,16 16,16M17,15 18,15 18,16 17,16M18,15 19,15 19,16 18,16M13,15 14,15 14,16 13,16M12,15 13,15 13,16 12,16M10,15 11,15 11,16 10,16M11,15 12,15 12,16 11,16M19,15 20,15 20,16 19,16M20,15 21,15 21,16 20,16M21,15 22,15 22,16 21,16M22,15 23,15 23,16 22,16M9,15 10,15 10,16 9,16M8,15 9,15 9,16 8,16M16,14 17,14 17,15 16,15M14,14 15,14 15,15 14,15M14,16 15,16 15,17 14,17M16,16 17,16 17,17 16,17M17,13 18,13 18,14 17,14M18,12 19,12 19,13 18,13M19,11 20,11 20,12 19,12M17,17 18,17 18,18 17,18M18,18 19,18 19,19 18,19M19,19 20,19 20,20 19,20M13,17 14,17 14,18 13,18M12,18 13,18 13,19 12,19M11,19 12,19 12,20 11,20M13,13 14,13 14,14 13,14M12,12 13,12 13,13 12,13M11,11 12,11 12,12 11,12M7,15 8,15 8,16 7,16M10,10 11,10 11,11 10,11M15,7 16,7 16,8 15,8M20,10 21,10 21,11 20,11M23,15 24,15 24,16 23,16M20,20 21,20 21,21 20,21M10,20 11,20 11,21 10,21M15,23 16,23 16,24 15,24M6,15 7,15 7,16 6,16M9,9 10,9 10,10 9,10M15,6 16,6 16,7 15,7M21,9 22,9 22,10 21,10M24,15 25,15 25,16 24,16M21,21 22,21 22,22 21,22M15,24 16,24 16,25 15,25M9,21 10,21 10,22 9,22;M15,8 16,8 16,9 15,9M15,9 16,9 16,10 15,10M15,10 16,10 16,11 15,11M15,12 16,12 16,13 15,13M15,11 16,11 16,12 15,12M15,13 16,13 16,14 15,14M15,14 16,14 16,15 15,15M15,16 16,16 16,17 15,17M15,18 16,18 16,19 15,19M15,17 16,17 16,18 15,18M15,19 16,19 16,20 15,20M15,20 16,20 16,21 15,21M15,21 16,21 16,22 15,22M15,22 16,22 16,23 15,23M14,15 15,15 15,16 14,16M15,15 16,15 16,16 15,16M16,15 17,15 17,16 16,16M17,15 18,15 18,16 17,16M18,15 19,15 19,16 18,16M13,15 14,15 14,16 13,16M12,15 13,15 13,16 12,16M10,15 11,15 11,16 10,16M11,15 12,15 12,16 11,16M19,15 20,15 20,16 19,16M20,15 21,15 21,16 20,16M21,15 22,15 22,16 21,16M22,15 23,15 23,16 22,16M9,15 10,15 10,16 9,16M8,15 9,15 9,16 8,16M16,14 17,14 17,15 16,15M14,14 15,14 15,15 14,15M14,16 15,16 15,17 14,17M16,16 17,16 17,17 16,17M17,13 18,13 18,14 17,14M18,12 19,12 19,13 18,13M19,11 20,11 20,12 19,12M17,17 18,17 18,18 17,18M18,18 19,18 19,19 18,19M19,19 20,19 20,20 19,20M13,17 14,17 14,18 13,18M12,18 13,18 13,19 12,19M11,19 12,19 12,20 11,20M13,13 14,13 14,14 13,14M12,12 13,12 13,13 12,13M11,11 12,11 12,12 11,12M7,15 8,15 8,16 7,16M10,10 11,10 11,11 10,11M15,7 16,7 16,8 15,8M20,10 21,10 21,11 20,11M23,15 24,15 24,16 23,16M20,20 21,20 21,21 20,21M10,20 11,20 11,21 10,21M15,23 16,23 16,24 15,24M6,15 7,15 7,16 6,16M9,9 10,9 10,10 9,10M15,6 16,6 16,7 15,7M21,9 22,9 22,10 21,10M24,15 25,15 25,16 24,16M21,21 22,21 22,22 21,22M15,24 16,24 16,25 15,25M9,21 10,21 10,22 9,22;M15,8 16,8 16,9 15,9M15,9 16,9 16,10 15,10M15,10 16,10 16,11 15,11M15,12 16,12 16,13 15,13M15,11 16,11 16,12 15,12M15,13 16,13 16,14 15,14M15,14 16,14 16,15 15,15M15,16 16,16 16,17 15,17M15,18 16,18 16,19 15,19M15,17 16,17 16,18 15,18M15,19 16,19 16,20 15,20M15,20 16,20 16,21 15,21M15,21 16,21 16,22 15,22M15,22 16,22 16,23 15,23M14,15 15,15 15,16 14,16M15,15 16,15 16,16 15,16M16,15 17,15 17,16 16,16M17,15 18,15 18,16 17,16M18,15 19,15 19,16 18,16M13,15 14,15 14,16 13,16M12,15 13,15 13,16 12,16M10,15 11,15 11,16 10,16M11,15 12,15 12,16 11,16M19,15 20,15 20,16 19,16M20,15 21,15 21,16 20,16M21,15 22,15 22,16 21,16M22,15 23,15 23,16 22,16M9,15 10,15 10,16 9,16M8,15 9,15 9,16 8,16M16,14 17,14 17,15 16,15M14,14 15,14 15,15 14,15M14,16 15,16 15,17 14,17M16,16 17,16 17,17 16,17M17,13 18,13 18,14 17,14M18,12 19,12 19,13 18,13M19,11 20,11 20,12 19,12M17,17 18,17 18,18 17,18M18,18 19,18 19,19 18,19M19,19 20,19 20,20 19,20M13,17 14,17 14,18 13,18M12,18 13,18 13,19 12,19M11,19 12,19 12,20 11,20M13,13 14,13 14,14 13,14M12,12 13,12 13,13 12,13M11,11 12,11 12,12 11,12M7,15 8,15 8,16 7,16M10,10 11,10 11,11 10,11M15,7 16,7 16,8 15,8M20,10 21,10 21,11 20,11M23,15 24,15 24,16 23,16M20,20 21,20 21,21 20,21M10,20 11,20 11,21 10,21M15,23 16,23 16,24 15,24M6,15 7,15 7,16 6,16M9,9 10,9 10,10 9,10M15,6 16,6 16,7 15,7M21,9 22,9 22,10 21,10M24,15 25,15 25,16 24,16M21,21 22,21 22,22 21,22M15,24 16,24 16,25 15,25M9,21 10,21 10,22 9,22M8,8 9,8 9,9 8,9M15,5 16,5 16,6 15,6M22,8 23,8 23,9 22,9M25,15 26,15 26,16 25,16M22,22 23,22 23,23 22,23M15,25 16,25 16,26 15,26M8,22 9,22 9,23 8,23M5,15 6,15 6,16 5,16;"/></path></svg>